<svg width="80" height="80" viewBox="0 0 80 80" fill="none" xmlns="http://www.w3.org/2000/svg">
<circle cx="40" cy="40" r="40" fill="#57B04A"/>
<circle cx="40" cy="40" r="24" fill="white" fill-opacity="0.7"/>
<path d="M32.5554 46.7988C31.4948 46.7988 30.5502 46.6165 29.7216 46.252C28.8977 45.8826 28.2467 45.376 27.7685 44.7321C27.295 44.0834 27.0511 43.3353 27.0369 42.4878H30.1335C30.1525 42.8429 30.2685 43.1554 30.4815 43.4253C30.6993 43.6904 30.9882 43.8964 31.348 44.0432C31.7079 44.1899 32.1127 44.2633 32.5625 44.2633C33.0312 44.2633 33.4455 44.1805 33.8054 44.0147C34.1652 43.849 34.447 43.6194 34.6506 43.3258C34.8542 43.0323 34.956 42.6937 34.956 42.3102C34.956 41.9219 34.8471 41.5787 34.6293 41.2804C34.4162 40.9773 34.1084 40.7406 33.706 40.5701C33.3082 40.3997 32.8348 40.3145 32.2855 40.3145H30.929V38.0559H32.2855C32.7495 38.0559 33.1591 37.9754 33.5142 37.8145C33.8741 37.6535 34.1534 37.4309 34.3523 37.1469C34.5511 36.858 34.6506 36.5219 34.6506 36.1383C34.6506 35.7737 34.563 35.4541 34.3878 35.1795C34.2173 34.9002 33.9759 34.6824 33.6634 34.5261C33.3556 34.3699 32.9957 34.2917 32.5838 34.2917C32.1671 34.2917 31.786 34.3675 31.4403 34.519C31.0947 34.6658 30.8177 34.8765 30.6094 35.1511C30.401 35.4257 30.2898 35.7477 30.2756 36.117H27.3281C27.3423 35.279 27.5814 34.5403 28.0455 33.9011C28.5095 33.2619 29.1345 32.7624 29.9205 32.4025C30.7112 32.0379 31.6037 31.8557 32.598 31.8557C33.6018 31.8557 34.4801 32.0379 35.233 32.4025C35.9858 32.7671 36.5705 33.2595 36.9872 33.8798C37.4086 34.4953 37.617 35.1866 37.6122 35.9537C37.617 36.7681 37.3636 37.4475 36.8523 37.992C36.3456 38.5365 35.6851 38.8822 34.8707 39.029V39.1426C35.9408 39.2799 36.7552 39.6516 37.3139 40.2576C37.8774 40.859 38.1567 41.6118 38.152 42.5162C38.1567 43.3448 37.9176 44.081 37.4347 44.725C36.9564 45.3689 36.2959 45.8755 35.4531 46.2449C34.6103 46.6142 33.6444 46.7988 32.5554 46.7988ZM45.6254 31.8557C46.3735 31.8557 47.0932 31.9811 47.7844 32.2321C48.4805 32.483 49.1007 32.8831 49.6452 33.4324C50.1945 33.9816 50.6277 34.7108 50.945 35.6199C51.2669 36.5242 51.4303 37.6345 51.435 38.9508C51.435 40.1866 51.2953 41.2898 51.016 42.2605C50.7414 43.2264 50.346 44.0479 49.8299 44.725C49.3138 45.4021 48.6912 45.9182 47.962 46.2733C47.2328 46.6236 46.4184 46.7988 45.5188 46.7988C44.5482 46.7988 43.6912 46.6118 42.9478 46.2378C42.2044 45.859 41.6055 45.3452 41.1509 44.6966C40.7011 44.0432 40.4289 43.3093 40.3342 42.4949H43.3668C43.4852 43.0252 43.7338 43.4371 44.1126 43.7307C44.4914 44.0195 44.9601 44.1639 45.5188 44.1639C46.4658 44.1639 47.1855 43.752 47.6779 42.9281C48.1703 42.0995 48.4189 40.9655 48.4237 39.5261H48.3242C48.1064 39.9522 47.8129 40.3192 47.4435 40.627C47.0742 40.93 46.6505 41.1644 46.1722 41.3301C45.6987 41.4958 45.1945 41.5787 44.6594 41.5787C43.8024 41.5787 43.0378 41.3774 42.3654 40.975C41.6931 40.5725 41.1628 40.0185 40.7745 39.313C40.3862 38.6076 40.1921 37.8026 40.1921 36.8983C40.1874 35.9229 40.4123 35.054 40.8668 34.2917C41.3214 33.5294 41.9558 32.9328 42.7702 32.502C43.5894 32.0664 44.5411 31.8509 45.6254 31.8557ZM45.6467 34.2704C45.1684 34.2704 44.7423 34.3841 44.3683 34.6113C43.9989 34.8386 43.7054 35.144 43.4876 35.5275C43.2745 35.9111 43.1703 36.3396 43.1751 36.813C43.1751 37.2913 43.2792 37.7221 43.4876 38.1057C43.7006 38.4844 43.9895 38.7875 44.354 39.0147C44.7234 39.2373 45.1448 39.3486 45.6183 39.3486C45.9734 39.3486 46.3024 39.2823 46.6055 39.1497C46.9085 39.0171 47.1713 38.8348 47.3938 38.6028C47.6211 38.3661 47.7987 38.0938 47.9265 37.7861C48.0543 37.4783 48.1183 37.1516 48.1183 36.8059C48.1135 36.3467 48.0046 35.9253 47.7915 35.5417C47.5785 35.1582 47.2849 34.8504 46.9109 34.6184C46.5368 34.3864 46.1154 34.2704 45.6467 34.2704Z" fill="black"/>
</svg>
