<svg width="80" height="80" viewBox="0 0 80 80" fill="none" xmlns="http://www.w3.org/2000/svg">
<circle cx="40" cy="40" r="40" fill="#FF0000"/>
<circle cx="40" cy="40" r="24" fill="white" fill-opacity="0.7"/>
<path d="M32.5554 47.7988C31.4948 47.7988 30.5502 47.6165 29.7216 47.252C28.8977 46.8826 28.2467 46.376 27.7685 45.7321C27.295 45.0834 27.0511 44.3353 27.0369 43.4878H30.1335C30.1525 43.8429 30.2685 44.1554 30.4815 44.4253C30.6993 44.6904 30.9882 44.8964 31.348 45.0432C31.7079 45.1899 32.1127 45.2633 32.5625 45.2633C33.0312 45.2633 33.4455 45.1805 33.8054 45.0147C34.1652 44.849 34.447 44.6194 34.6506 44.3258C34.8542 44.0323 34.956 43.6937 34.956 43.3102C34.956 42.9219 34.8471 42.5787 34.6293 42.2804C34.4162 41.9773 34.1084 41.7406 33.706 41.5701C33.3082 41.3997 32.8348 41.3145 32.2855 41.3145H30.929V39.0559H32.2855C32.7495 39.0559 33.1591 38.9754 33.5142 38.8145C33.8741 38.6535 34.1534 38.4309 34.3523 38.1469C34.5511 37.858 34.6506 37.5219 34.6506 37.1383C34.6506 36.7737 34.563 36.4541 34.3878 36.1795C34.2173 35.9002 33.9759 35.6824 33.6634 35.5261C33.3556 35.3699 32.9957 35.2917 32.5838 35.2917C32.1671 35.2917 31.786 35.3675 31.4403 35.519C31.0947 35.6658 30.8177 35.8765 30.6094 36.1511C30.401 36.4257 30.2898 36.7477 30.2756 37.117H27.3281C27.3423 36.279 27.5814 35.5403 28.0455 34.9011C28.5095 34.2619 29.1345 33.7624 29.9205 33.4025C30.7112 33.0379 31.6037 32.8557 32.598 32.8557C33.6018 32.8557 34.4801 33.0379 35.233 33.4025C35.9858 33.7671 36.5705 34.2595 36.9872 34.8798C37.4086 35.4953 37.617 36.1866 37.6122 36.9537C37.617 37.7681 37.3636 38.4475 36.8523 38.992C36.3456 39.5365 35.6851 39.8822 34.8707 40.029V40.1426C35.9408 40.2799 36.7552 40.6516 37.3139 41.2576C37.8774 41.859 38.1567 42.6118 38.152 43.5162C38.1567 44.3448 37.9176 45.081 37.4347 45.725C36.9564 46.3689 36.2959 46.8755 35.4531 47.2449C34.6103 47.6142 33.6444 47.7988 32.5554 47.7988ZM40.1424 45.0432V42.6213L46.2148 33.0545H48.3029V36.4068H47.0671L43.239 42.465V42.5787H51.8683V45.0432H40.1424ZM47.1239 47.6V44.3045L47.1808 43.2321V33.0545H50.0643V47.6H47.1239Z" fill="black"/>
</svg>
