<svg width="80" height="80" viewBox="0 0 80 80" fill="none" xmlns="http://www.w3.org/2000/svg">
<circle cx="40" cy="40" r="40" fill="#57B04A"/>
<circle cx="40" cy="40" r="24" fill="white" fill-opacity="0.7"/>
<path d="M28.779 47.6V45.3841L33.9565 40.59C34.3969 40.1639 34.7662 39.7804 35.0645 39.4395C35.3675 39.0986 35.5971 38.7647 35.7534 38.438C35.9096 38.1066 35.9878 37.7491 35.9878 37.3656C35.9878 36.9395 35.8907 36.5725 35.6966 36.2647C35.5024 35.9522 35.2373 35.7131 34.9011 35.5474C34.5649 35.377 34.1838 35.2917 33.7576 35.2917C33.3126 35.2917 32.9243 35.3817 32.5929 35.5616C32.2614 35.7415 32.0058 35.9996 31.8258 36.3358C31.6459 36.6719 31.5559 37.072 31.5559 37.5361H28.6369C28.6369 36.5844 28.8523 35.7581 29.2832 35.0574C29.7141 34.3566 30.3178 33.8145 31.0943 33.4309C31.8708 33.0474 32.7657 32.8557 33.779 32.8557C34.8206 32.8557 35.7273 33.0403 36.4991 33.4096C37.2756 33.7742 37.8793 34.2808 38.3102 34.9295C38.7411 35.5782 38.9565 36.3216 38.9565 37.1596C38.9565 37.7089 38.8476 38.251 38.6298 38.7861C38.4167 39.3211 38.0356 39.9153 37.4863 40.5687C36.9371 41.2174 36.1629 41.9963 35.1639 42.9054L33.0403 44.9863V45.0858H39.1483V47.6H28.779ZM41.9519 47.6L47.9817 35.6682V35.5687H40.9576V33.0545H51.1635V35.6042L45.1266 47.6H41.9519Z" fill="black"/>
</svg>
