<svg width="80" height="80" viewBox="0 0 80 80" fill="none" xmlns="http://www.w3.org/2000/svg">
<circle cx="40" cy="40" r="40" fill="#FFA500"/>
<circle cx="40" cy="40" r="24" fill="white" fill-opacity="0.7"/>
<path d="M34.179 47V44.7841L39.3565 39.9901C39.7969 39.5639 40.1662 39.1804 40.4645 38.8395C40.7675 38.4986 40.9972 38.1648 41.1534 37.8381C41.3097 37.5066 41.3878 37.1491 41.3878 36.7656C41.3878 36.3395 41.2907 35.9725 41.0966 35.6648C40.9025 35.3523 40.6373 35.1132 40.3011 34.9474C39.965 34.777 39.5838 34.6918 39.1577 34.6918C38.7126 34.6918 38.3243 34.7817 37.9929 34.9616C37.6615 35.1416 37.4058 35.3996 37.2259 35.7358C37.0459 36.072 36.956 36.4721 36.956 36.9361H34.0369C34.0369 35.9844 34.2524 35.1581 34.6832 34.4574C35.1141 33.7566 35.7178 33.2145 36.4943 32.831C37.2708 32.4474 38.1657 32.2557 39.179 32.2557C40.2206 32.2557 41.1274 32.4403 41.8991 32.8097C42.6757 33.1742 43.2794 33.6809 43.7102 34.3295C44.1411 34.9782 44.3565 35.7216 44.3565 36.5597C44.3565 37.1089 44.2476 37.651 44.0298 38.1861C43.8168 38.7211 43.4356 39.3153 42.8864 39.9688C42.3371 40.6174 41.563 41.3963 40.5639 42.3054L38.4403 44.3864V44.4858H44.5483V47H34.179Z" fill="black"/>
</svg>
