<svg width="80" height="80" viewBox="0 0 80 80" fill="none" xmlns="http://www.w3.org/2000/svg">
<circle cx="40" cy="40" r="40" fill="#57B04A"/>
<circle cx="40" cy="40" r="24" fill="white" fill-opacity="0.7"/>
<path d="M33.5554 47.7988C32.4948 47.7988 31.5502 47.6165 30.7216 47.252C29.8977 46.8826 29.2467 46.376 28.7685 45.7321C28.295 45.0834 28.0511 44.3353 28.0369 43.4878H31.1335C31.1525 43.8429 31.2685 44.1554 31.4815 44.4253C31.6993 44.6904 31.9882 44.8964 32.348 45.0432C32.7079 45.1899 33.1127 45.2633 33.5625 45.2633C34.0312 45.2633 34.4455 45.1805 34.8054 45.0147C35.1652 44.849 35.447 44.6194 35.6506 44.3258C35.8542 44.0323 35.956 43.6937 35.956 43.3102C35.956 42.9219 35.8471 42.5787 35.6293 42.2804C35.4162 41.9773 35.1084 41.7406 34.706 41.5701C34.3082 41.3997 33.8348 41.3145 33.2855 41.3145H31.929V39.0559H33.2855C33.7495 39.0559 34.1591 38.9754 34.5142 38.8145C34.8741 38.6535 35.1534 38.4309 35.3523 38.1469C35.5511 37.858 35.6506 37.5219 35.6506 37.1383C35.6506 36.7737 35.563 36.4541 35.3878 36.1795C35.2173 35.9002 34.9759 35.6824 34.6634 35.5261C34.3556 35.3699 33.9957 35.2917 33.5838 35.2917C33.1671 35.2917 32.786 35.3675 32.4403 35.519C32.0947 35.6658 31.8177 35.8765 31.6094 36.1511C31.401 36.4257 31.2898 36.7477 31.2756 37.117H28.3281C28.3423 36.279 28.5814 35.5403 29.0455 34.9011C29.5095 34.2619 30.1345 33.7624 30.9205 33.4025C31.7112 33.0379 32.6037 32.8557 33.598 32.8557C34.6018 32.8557 35.4801 33.0379 36.233 33.4025C36.9858 33.7671 37.5705 34.2595 37.9872 34.8798C38.4086 35.4953 38.617 36.1866 38.6122 36.9537C38.617 37.7681 38.3636 38.4475 37.8523 38.992C37.3456 39.5365 36.6851 39.8822 35.8707 40.029V40.1426C36.9408 40.2799 37.7552 40.6516 38.3139 41.2576C38.8774 41.859 39.1567 42.6118 39.152 43.5162C39.1567 44.3448 38.9176 45.081 38.4347 45.725C37.9564 46.3689 37.2959 46.8755 36.4531 47.2449C35.6103 47.6142 34.6444 47.7988 33.5554 47.7988ZM46.739 47.7988C45.6784 47.7988 44.7338 47.6165 43.9052 47.252C43.0813 46.8826 42.4303 46.376 41.9521 45.7321C41.4786 45.0834 41.2347 44.3353 41.2205 43.4878H44.3171C44.3361 43.8429 44.4521 44.1554 44.6651 44.4253C44.8829 44.6904 45.1718 44.8964 45.5316 45.0432C45.8915 45.1899 46.2963 45.2633 46.7461 45.2633C47.2148 45.2633 47.6291 45.1805 47.989 45.0147C48.3488 44.849 48.6306 44.6194 48.8342 44.3258C49.0378 44.0323 49.1396 43.6937 49.1396 43.3102C49.1396 42.9219 49.0307 42.5787 48.8129 42.2804C48.5998 41.9773 48.292 41.7406 47.8896 41.5701C47.4918 41.3997 47.0183 41.3145 46.4691 41.3145H45.1126V39.0559H46.4691C46.9331 39.0559 47.3427 38.9754 47.6978 38.8145C48.0576 38.6535 48.337 38.4309 48.5359 38.1469C48.7347 37.858 48.8342 37.5219 48.8342 37.1383C48.8342 36.7737 48.7466 36.4541 48.5714 36.1795C48.4009 35.9002 48.1594 35.6824 47.8469 35.5261C47.5392 35.3699 47.1793 35.2917 46.7674 35.2917C46.3507 35.2917 45.9696 35.3675 45.6239 35.519C45.2783 35.6658 45.0013 35.8765 44.793 36.1511C44.5846 36.4257 44.4734 36.7477 44.4592 37.117H41.5117C41.5259 36.279 41.765 35.5403 42.229 34.9011C42.6931 34.2619 43.3181 33.7624 44.104 33.4025C44.8948 33.0379 45.7873 32.8557 46.7816 32.8557C47.7854 32.8557 48.6637 33.0379 49.4165 33.4025C50.1694 33.7671 50.7541 34.2595 51.1708 34.8798C51.5922 35.4953 51.8005 36.1866 51.7958 36.9537C51.8005 37.7681 51.5472 38.4475 51.0359 38.992C50.5292 39.5365 49.8687 39.8822 49.0543 40.029V40.1426C50.1244 40.2799 50.9388 40.6516 51.4975 41.2576C52.061 41.859 52.3403 42.6118 52.3356 43.5162C52.3403 44.3448 52.1012 45.081 51.6183 45.725C51.14 46.3689 50.4795 46.8755 49.6367 47.2449C48.7939 47.6142 47.828 47.7988 46.739 47.7988Z" fill="black"/>
</svg>
