<svg width="80" height="80" viewBox="0 0 80 80" fill="none" xmlns="http://www.w3.org/2000/svg">
<circle cx="40" cy="40" r="40" fill="#FFA500"/>
<circle cx="40" cy="40" r="24" fill="white" fill-opacity="0.7"/>
<path d="M33.5554 48.1989C32.4948 48.1989 31.5502 48.0166 30.7216 47.652C29.8977 47.2827 29.2467 46.776 28.7685 46.1321C28.295 45.4834 28.0511 44.7353 28.0369 43.8878H31.1335C31.1525 44.2429 31.2685 44.5554 31.4815 44.8253C31.6993 45.0904 31.9882 45.2964 32.348 45.4432C32.7079 45.59 33.1127 45.6634 33.5625 45.6634C34.0312 45.6634 34.4455 45.5805 34.8054 45.4148C35.1652 45.2491 35.447 45.0194 35.6506 44.7259C35.8542 44.4323 35.956 44.0937 35.956 43.7102C35.956 43.322 35.8471 42.9787 35.6293 42.6804C35.4162 42.3774 35.1084 42.1406 34.706 41.9702C34.3082 41.7997 33.8348 41.7145 33.2855 41.7145H31.929V39.456H33.2855C33.7495 39.456 34.1591 39.3755 34.5142 39.2145C34.8741 39.0535 35.1534 38.831 35.3523 38.5469C35.5511 38.258 35.6506 37.9219 35.6506 37.5384C35.6506 37.1738 35.563 36.8542 35.3878 36.5795C35.2173 36.3002 34.9759 36.0824 34.6634 35.9261C34.3556 35.7699 33.9957 35.6918 33.5838 35.6918C33.1671 35.6918 32.786 35.7675 32.4403 35.919C32.0947 36.0658 31.8177 36.2765 31.6094 36.5511C31.401 36.8258 31.2898 37.1477 31.2756 37.517H28.3281C28.3423 36.679 28.5814 35.9403 29.0455 35.3011C29.5095 34.6619 30.1345 34.1624 30.9205 33.8026C31.7112 33.438 32.6037 33.2557 33.598 33.2557C34.6018 33.2557 35.4801 33.438 36.233 33.8026C36.9858 34.1671 37.5705 34.6596 37.9872 35.2798C38.4086 35.8954 38.617 36.5866 38.6122 37.3537C38.617 38.1681 38.3636 38.8475 37.8523 39.392C37.3456 39.9366 36.6851 40.2822 35.8707 40.429V40.5426C36.9408 40.6799 37.7552 41.0516 38.3139 41.6577C38.8774 42.259 39.1567 43.0118 39.152 43.9162C39.1567 44.7448 38.9176 45.4811 38.4347 46.125C37.9564 46.7689 37.2959 47.2756 36.4531 47.6449C35.6103 48.0142 34.6444 48.1989 33.5554 48.1989ZM46.6751 48.1989C45.6713 48.1989 44.7764 48.0142 43.9904 47.6449C43.2092 47.2756 42.5889 46.7666 42.1296 46.1179C41.6703 45.4692 41.4312 44.7259 41.4123 43.8878H44.3952C44.4284 44.4512 44.6651 44.9081 45.1055 45.2585C45.5458 45.6089 46.069 45.7841 46.6751 45.7841C47.158 45.7841 47.5842 45.6776 47.9535 45.4645C48.3275 45.2467 48.6187 44.946 48.8271 44.5625C49.0401 44.1742 49.1467 43.7292 49.1467 43.2273C49.1467 42.7159 49.0378 42.2661 48.82 41.8778C48.6069 41.4896 48.311 41.1866 47.9322 40.9688C47.5534 40.7509 47.1201 40.6397 46.6325 40.6349C46.2063 40.6349 45.792 40.7225 45.3896 40.8977C44.9918 41.0729 44.6817 41.312 44.4592 41.6151L41.7248 41.125L42.4137 33.4545H51.3058V35.9688H44.9492L44.5728 39.6122H44.658C44.9137 39.2524 45.2996 38.9541 45.8157 38.7173C46.3318 38.4806 46.9094 38.3622 47.5487 38.3622C48.4246 38.3622 49.2058 38.5682 49.8924 38.9801C50.579 39.392 51.1211 39.9579 51.5188 40.6776C51.9165 41.3925 52.113 42.2164 52.1083 43.1491C52.113 44.1293 51.8858 45.0005 51.4265 45.7628C50.9719 46.5204 50.3351 47.117 49.516 47.5526C48.7016 47.9834 47.7546 48.1989 46.6751 48.1989Z" fill="black"/>
</svg>
