<svg width="80" height="80" viewBox="0 0 80 80" fill="none" xmlns="http://www.w3.org/2000/svg">
<circle cx="40" cy="40" r="40" fill="#FFA500"/>
<circle cx="40" cy="40" r="24" fill="white" fill-opacity="0.7"/>
<path d="M40.6051 48.1989C39.5114 48.1989 38.5384 48.0213 37.6861 47.6662C36.8385 47.3063 36.1733 46.8163 35.6903 46.196C35.2074 45.5758 34.9659 44.8726 34.9659 44.0866C34.9659 43.4806 35.1032 42.9242 35.3778 42.4176C35.6572 41.9062 36.036 41.4825 36.5142 41.1463C36.9924 40.8054 37.5275 40.5876 38.1193 40.4929V40.3935C37.3428 40.2372 36.7131 39.8608 36.2301 39.2642C35.7472 38.6629 35.5057 37.9645 35.5057 37.169C35.5057 36.4162 35.7259 35.7462 36.1662 35.1591C36.6065 34.5672 37.2102 34.1032 37.9773 33.767C38.7491 33.4261 39.625 33.2557 40.6051 33.2557C41.5852 33.2557 42.4588 33.4261 43.2259 33.767C43.9976 34.108 44.6037 34.5743 45.044 35.1662C45.4844 35.7533 45.7069 36.4209 45.7116 37.169C45.7069 37.9692 45.4607 38.6676 44.973 39.2642C44.4853 39.8608 43.8603 40.2372 43.098 40.3935V40.4929C43.6804 40.5876 44.2083 40.8054 44.6818 41.1463C45.16 41.4825 45.5388 41.9062 45.8182 42.4176C46.1023 42.9242 46.2467 43.4806 46.2514 44.0866C46.2467 44.8726 46.0028 45.5758 45.5199 46.196C45.0369 46.8163 44.3693 47.3063 43.517 47.6662C42.6695 48.0213 41.6989 48.1989 40.6051 48.1989ZM40.6051 45.9403C41.0928 45.9403 41.5189 45.8527 41.8835 45.6776C42.2481 45.4976 42.5322 45.2514 42.7358 44.9389C42.9441 44.6217 43.0483 44.2571 43.0483 43.8452C43.0483 43.4238 42.9418 43.0521 42.7287 42.7301C42.5156 42.4034 42.2268 42.1477 41.8622 41.9631C41.4976 41.7737 41.0786 41.679 40.6051 41.679C40.1364 41.679 39.7173 41.7737 39.348 41.9631C38.9787 42.1477 38.6875 42.4034 38.4744 42.7301C38.2661 43.0521 38.1619 43.4238 38.1619 43.8452C38.1619 44.2571 38.2637 44.6217 38.4673 44.9389C38.6709 45.2514 38.9574 45.4976 39.3267 45.6776C39.696 45.8527 40.1222 45.9403 40.6051 45.9403ZM40.6051 39.4418C41.0123 39.4418 41.3745 39.3589 41.6918 39.1932C42.009 39.0275 42.2576 38.7978 42.4375 38.5043C42.6174 38.2107 42.7074 37.8722 42.7074 37.4886C42.7074 37.1098 42.6174 36.7784 42.4375 36.4943C42.2576 36.2055 42.0114 35.9806 41.6989 35.8196C41.3864 35.6539 41.0218 35.571 40.6051 35.571C40.1932 35.571 39.8286 35.6539 39.5114 35.8196C39.1941 35.9806 38.9455 36.2055 38.7656 36.4943C38.5904 36.7784 38.5028 37.1098 38.5028 37.4886C38.5028 37.8722 38.5928 38.2107 38.7727 38.5043C38.9527 38.7978 39.2012 39.0275 39.5185 39.1932C39.8357 39.3589 40.1979 39.4418 40.6051 39.4418Z" fill="black"/>
</svg>
