<svg width="80" height="80" viewBox="0 0 80 80" fill="none" xmlns="http://www.w3.org/2000/svg">
<circle cx="40" cy="40" r="40" fill="#57B04A"/>
<circle cx="40" cy="40" r="24" fill="white" fill-opacity="0.7"/>
<path d="M35.9071 33.0545V47.6H32.8318V35.9736H32.7466L29.4156 38.0616V35.3344L33.0165 33.0545H35.9071ZM39.3641 47.6V45.3841L44.5417 40.59C44.982 40.1639 45.3513 39.7804 45.6496 39.4395C45.9527 39.0986 46.1823 38.7647 46.3386 38.438C46.4948 38.1066 46.5729 37.7491 46.5729 37.3656C46.5729 36.9395 46.4759 36.5725 46.2817 36.2647C46.0876 35.9522 45.8225 35.7131 45.4863 35.5474C45.1501 35.377 44.769 35.2917 44.3428 35.2917C43.8977 35.2917 43.5095 35.3817 43.178 35.5616C42.8466 35.7415 42.5909 35.9996 42.411 36.3358C42.2311 36.6719 42.1411 37.072 42.1411 37.5361H39.2221C39.2221 36.5844 39.4375 35.7581 39.8684 35.0574C40.2993 34.3566 40.903 33.8145 41.6795 33.4309C42.456 33.0474 43.3509 32.8557 44.3641 32.8557C45.4058 32.8557 46.3125 33.0403 47.0843 33.4096C47.8608 33.7742 48.4645 34.2808 48.8954 34.9295C49.3262 35.5782 49.5417 36.3216 49.5417 37.1596C49.5417 37.7089 49.4328 38.251 49.215 38.7861C49.0019 39.3211 48.6208 39.9153 48.0715 40.5687C47.5223 41.2174 46.7481 41.9963 45.7491 42.9054L43.6255 44.9863V45.0858H49.7334V47.6H39.3641Z" fill="black"/>
</svg>
