<svg width="80" height="80" viewBox="0 0 80 80" fill="none" xmlns="http://www.w3.org/2000/svg">
<circle cx="40" cy="40" r="40" fill="#FFA500"/>
<circle cx="40" cy="40" r="24" fill="white" fill-opacity="0.7"/>
<path d="M28.179 47.6V45.3841L33.3565 40.59C33.7969 40.1639 34.1662 39.7804 34.4645 39.4395C34.7675 39.0986 34.9972 38.7647 35.1534 38.438C35.3097 38.1066 35.3878 37.7491 35.3878 37.3656C35.3878 36.9395 35.2907 36.5725 35.0966 36.2647C34.9025 35.9522 34.6373 35.7131 34.3011 35.5474C33.965 35.377 33.5838 35.2917 33.1577 35.2917C32.7126 35.2917 32.3243 35.3817 31.9929 35.5616C31.6615 35.7415 31.4058 35.9996 31.2259 36.3358C31.0459 36.6719 30.956 37.072 30.956 37.5361H28.0369C28.0369 36.5844 28.2524 35.7581 28.6832 35.0574C29.1141 34.3566 29.7178 33.8145 30.4943 33.4309C31.2708 33.0474 32.1657 32.8557 33.179 32.8557C34.2206 32.8557 35.1274 33.0403 35.8991 33.4096C36.6757 33.7742 37.2794 34.2808 37.7102 34.9295C38.1411 35.5782 38.3565 36.3216 38.3565 37.1596C38.3565 37.7089 38.2476 38.251 38.0298 38.7861C37.8168 39.3211 37.4356 39.9153 36.8864 40.5687C36.3371 41.2174 35.563 41.9963 34.5639 42.9054L32.4403 44.9863V45.0858H38.5483V47.6H28.179ZM46.4798 47.9196C45.2582 47.9148 44.207 47.6142 43.3263 47.0176C42.4504 46.421 41.7757 45.5569 41.3022 44.4253C40.8335 43.2936 40.6014 41.9324 40.6062 40.3415C40.6062 38.7553 40.8406 37.4035 41.3093 36.2861C41.7828 35.1686 42.4575 34.3187 43.3335 33.7363C44.2141 33.1492 45.2629 32.8557 46.4798 32.8557C47.6966 32.8557 48.743 33.1492 49.619 33.7363C50.4996 34.3235 51.1767 35.1757 51.6502 36.2932C52.1237 37.4058 52.3581 38.7553 52.3533 40.3415C52.3533 41.9371 52.1166 43.3007 51.6431 44.4324C51.1744 45.564 50.502 46.4281 49.6261 47.0247C48.7501 47.6213 47.7013 47.9196 46.4798 47.9196ZM46.4798 45.3699C47.3131 45.3699 47.9783 44.9508 48.4755 44.1128C48.9727 43.2747 49.2189 42.0176 49.2141 40.3415C49.2141 39.2382 49.1005 38.3197 48.8732 37.5858C48.6507 36.8519 48.3335 36.3003 47.9215 35.9309C47.5143 35.5616 47.0337 35.377 46.4798 35.377C45.6512 35.377 44.9883 35.7913 44.4911 36.6199C43.994 37.4485 43.743 38.689 43.7383 40.3415C43.7383 41.4589 43.8496 42.3916 44.0721 43.1397C44.2994 43.8831 44.619 44.4418 45.0309 44.8159C45.4428 45.1852 45.9258 45.3699 46.4798 45.3699Z" fill="black"/>
</svg>
