<svg width="80" height="80" viewBox="0 0 80 80" fill="none" xmlns="http://www.w3.org/2000/svg">
<circle cx="40" cy="40" r="40" fill="#FFA500"/>
<circle cx="40" cy="40" r="24" fill="white" fill-opacity="0.7"/>
<path d="M28.979 47.6V45.3841L34.1565 40.59C34.5969 40.1639 34.9662 39.7804 35.2645 39.4395C35.5675 39.0986 35.7971 38.7647 35.9534 38.438C36.1096 38.1066 36.1878 37.7491 36.1878 37.3656C36.1878 36.9395 36.0907 36.5725 35.8966 36.2647C35.7025 35.9522 35.4373 35.7131 35.1011 35.5474C34.765 35.377 34.3838 35.2917 33.9577 35.2917C33.5126 35.2917 33.1243 35.3817 32.7929 35.5616C32.4614 35.7415 32.2058 35.9996 32.0258 36.3358C31.8459 36.6719 31.756 37.072 31.756 37.5361H28.8369C28.8369 36.5844 29.0524 35.7581 29.4832 35.0574C29.9141 34.3566 30.5178 33.8145 31.2943 33.4309C32.0708 33.0474 32.9657 32.8557 33.979 32.8557C35.0206 32.8557 35.9274 33.0403 36.6991 33.4096C37.4757 33.7742 38.0793 34.2808 38.5102 34.9295C38.9411 35.5782 39.1565 36.3216 39.1565 37.1596C39.1565 37.7089 39.0476 38.251 38.8298 38.7861C38.6167 39.3211 38.2356 39.9153 37.6864 40.5687C37.1371 41.2174 36.363 41.9963 35.3639 42.9054L33.2403 44.9863V45.0858H39.3483V47.6H28.979ZM46.8394 32.8557C47.5875 32.8557 48.3072 32.9811 48.9985 33.2321C49.6945 33.483 50.3148 33.8831 50.8593 34.4324C51.4085 34.9816 51.8418 35.7108 52.159 36.6199C52.481 37.5242 52.6443 38.6345 52.6491 39.9508C52.6491 41.1866 52.5094 42.2898 52.23 43.2605C51.9554 44.2264 51.56 45.0479 51.044 45.725C50.5279 46.4021 49.9052 46.9182 49.1761 47.2733C48.4469 47.6236 47.6325 47.7988 46.7329 47.7988C45.7622 47.7988 44.9052 47.6118 44.1618 47.2378C43.4185 46.859 42.8195 46.3452 42.365 45.6966C41.9152 45.0432 41.6429 44.3093 41.5482 43.4949H44.5809C44.6993 44.0252 44.9478 44.4371 45.3266 44.7307C45.7054 45.0195 46.1742 45.1639 46.7329 45.1639C47.6798 45.1639 48.3995 44.752 48.892 43.9281C49.3844 43.0995 49.633 41.9655 49.6377 40.5261H49.5383C49.3205 40.9522 49.0269 41.3192 48.6576 41.627C48.2883 41.93 47.8645 42.1644 47.3863 42.3301C46.9128 42.4958 46.4085 42.5787 45.8735 42.5787C45.0165 42.5787 44.2518 42.3774 43.5795 41.975C42.9071 41.5725 42.3768 41.0185 41.9886 40.313C41.6003 39.6076 41.4062 38.8026 41.4062 37.8983C41.4014 36.9229 41.6263 36.054 42.0809 35.2917C42.5354 34.5294 43.1699 33.9328 43.9843 33.502C44.8034 33.0664 45.7551 32.8509 46.8394 32.8557ZM46.8607 35.2704C46.3825 35.2704 45.9564 35.3841 45.5823 35.6113C45.213 35.8386 44.9194 36.144 44.7016 36.5275C44.4886 36.9111 44.3844 37.3396 44.3891 37.813C44.3891 38.2913 44.4933 38.7221 44.7016 39.1057C44.9147 39.4844 45.2035 39.7875 45.5681 40.0147C45.9374 40.2373 46.3588 40.3486 46.8323 40.3486C47.1874 40.3486 47.5165 40.2823 47.8195 40.1497C48.1225 40.0171 48.3853 39.8348 48.6079 39.6028C48.8351 39.3661 49.0127 39.0938 49.1405 38.7861C49.2684 38.4783 49.3323 38.1516 49.3323 37.8059C49.3276 37.3467 49.2187 36.9253 49.0056 36.5417C48.7925 36.1582 48.499 35.8504 48.1249 35.6184C47.7509 35.3864 47.3295 35.2704 46.8607 35.2704Z" fill="black"/>
</svg>
