<svg width="80" height="80" viewBox="0 0 80 80" fill="none" xmlns="http://www.w3.org/2000/svg">
<circle cx="40" cy="40" r="40" fill="#57B04A"/>
<circle cx="40" cy="40" r="24" fill="white" fill-opacity="0.7"/>
<path d="M35.9071 33.0545V47.6H32.8318V35.9736H32.7466L29.4156 38.0616V35.3344L33.0165 33.0545H35.9071ZM44.6767 47.7988C43.6729 47.7988 42.778 47.6142 41.992 47.2449C41.2107 46.8755 40.5905 46.3665 40.1312 45.7179C39.6719 45.0692 39.4328 44.3258 39.4139 43.4878H42.3968C42.43 44.0512 42.6667 44.5081 43.1071 44.8585C43.5474 45.2089 44.0706 45.3841 44.6767 45.3841C45.1596 45.3841 45.5857 45.2775 45.9551 45.0645C46.3291 44.8467 46.6203 44.546 46.8286 44.1625C47.0417 43.7742 47.1482 43.3291 47.1482 42.8272C47.1482 42.3159 47.0393 41.8661 46.8215 41.4778C46.6085 41.0896 46.3125 40.7865 45.9338 40.5687C45.555 40.3509 45.1217 40.2397 44.634 40.2349C44.2079 40.2349 43.7936 40.3225 43.3911 40.4977C42.9934 40.6729 42.6833 40.912 42.4607 41.215L39.7264 40.725L40.4153 33.0545H49.3073V35.5687H42.9508L42.5744 39.2122H42.6596C42.9153 38.8523 43.3012 38.554 43.8173 38.3173C44.3334 38.0806 44.911 37.9622 45.5502 37.9622C46.4262 37.9622 47.2074 38.1682 47.894 38.5801C48.5805 38.992 49.1227 39.5578 49.5204 40.2775C49.9181 40.9925 50.1146 41.8164 50.1099 42.7491C50.1146 43.7292 49.8874 44.6004 49.4281 45.3628C48.9735 46.1203 48.3367 46.7169 47.5176 47.1525C46.7032 47.5834 45.7562 47.7988 44.6767 47.7988Z" fill="black"/>
</svg>
