<svg width="80" height="80" viewBox="0 0 80 80" fill="none" xmlns="http://www.w3.org/2000/svg">
<circle cx="40" cy="40" r="40" fill="#57B04A"/>
<circle cx="40" cy="40" r="24" fill="white" fill-opacity="0.7"/>
<path d="M35.9071 33.0545V47.6H32.8318V35.9736H32.7466L29.4156 38.0616V35.3344L33.0165 33.0545H35.9071ZM44.7903 47.7988C43.6965 47.7988 42.7235 47.6213 41.8713 47.2662C41.0237 46.9063 40.3585 46.4163 39.8755 45.796C39.3926 45.1757 39.1511 44.4726 39.1511 43.6866C39.1511 43.0806 39.2884 42.5242 39.563 42.0176C39.8424 41.5062 40.2212 41.0825 40.6994 40.7463C41.1776 40.4054 41.7126 40.1876 42.3045 40.0929V39.9934C41.528 39.8372 40.8982 39.4608 40.4153 38.8642C39.9323 38.2629 39.6909 37.5645 39.6909 36.769C39.6909 36.0162 39.911 35.3462 40.3514 34.7591C40.7917 34.1672 41.3954 33.7032 42.1625 33.367C42.9342 33.0261 43.8102 32.8557 44.7903 32.8557C45.7704 32.8557 46.644 33.0261 47.411 33.367C48.1828 33.7079 48.7889 34.1743 49.2292 34.7662C49.6696 35.3533 49.8921 36.0209 49.8968 36.769C49.8921 37.5692 49.6459 38.2676 49.1582 38.8642C48.6705 39.4608 48.0455 39.8372 47.2832 39.9934V40.0929C47.8656 40.1876 48.3935 40.4054 48.867 40.7463C49.3452 41.0825 49.724 41.5062 50.0034 42.0176C50.2875 42.5242 50.4319 43.0806 50.4366 43.6866C50.4319 44.4726 50.188 45.1757 49.7051 45.796C49.2221 46.4163 48.5545 46.9063 47.7022 47.2662C46.8547 47.6213 45.884 47.7988 44.7903 47.7988ZM44.7903 45.5403C45.278 45.5403 45.7041 45.4527 46.0687 45.2775C46.4333 45.0976 46.7174 44.8514 46.921 44.5389C47.1293 44.2217 47.2335 43.8571 47.2335 43.4451C47.2335 43.0237 47.1269 42.6521 46.9139 42.3301C46.7008 42.0034 46.412 41.7477 46.0474 41.563C45.6828 41.3736 45.2638 41.279 44.7903 41.279C44.3215 41.279 43.9025 41.3736 43.5332 41.563C43.1639 41.7477 42.8727 42.0034 42.6596 42.3301C42.4513 42.6521 42.3471 43.0237 42.3471 43.4451C42.3471 43.8571 42.4489 44.2217 42.6525 44.5389C42.8561 44.8514 43.1426 45.0976 43.5119 45.2775C43.8812 45.4527 44.3073 45.5403 44.7903 45.5403ZM44.7903 39.0417C45.1975 39.0417 45.5597 38.9589 45.8769 38.7932C46.1942 38.6274 46.4428 38.3978 46.6227 38.1042C46.8026 37.8107 46.8926 37.4721 46.8926 37.0886C46.8926 36.7098 46.8026 36.3784 46.6227 36.0943C46.4428 35.8055 46.1965 35.5806 45.884 35.4196C45.5715 35.2539 45.207 35.171 44.7903 35.171C44.3784 35.171 44.0138 35.2539 43.6965 35.4196C43.3793 35.5806 43.1307 35.8055 42.9508 36.0943C42.7756 36.3784 42.688 36.7098 42.688 37.0886C42.688 37.4721 42.778 37.8107 42.9579 38.1042C43.1378 38.3978 43.3864 38.6274 43.7036 38.7932C44.0209 38.9589 44.3831 39.0417 44.7903 39.0417Z" fill="black"/>
</svg>
