<svg width="80" height="80" viewBox="0 0 80 80" fill="none" xmlns="http://www.w3.org/2000/svg">
<circle cx="40" cy="40" r="40" fill="#57B04A"/>
<circle cx="40" cy="40" r="24" fill="white" fill-opacity="0.7"/>
<path d="M39.7614 47.1989C39.0133 47.1941 38.2912 47.0687 37.5952 46.8224C36.9039 46.5762 36.2836 46.1761 35.7344 45.6222C35.1851 45.0682 34.7495 44.3343 34.4276 43.4205C34.1103 42.5066 33.9517 41.3845 33.9517 40.054C33.9564 38.8324 34.0961 37.741 34.3707 36.7798C34.6501 35.8139 35.0478 34.9948 35.5639 34.3224C36.0848 33.6501 36.7074 33.1387 37.4318 32.7884C38.1563 32.4332 38.9683 32.2557 39.8679 32.2557C40.8385 32.2557 41.6955 32.4451 42.4389 32.8239C43.1823 33.1979 43.7789 33.7069 44.2287 34.3509C44.6832 34.9948 44.9579 35.7169 45.0526 36.517H42.0199C41.9015 36.0104 41.6529 35.6127 41.2741 35.3239C40.8954 35.035 40.4266 34.8906 39.8679 34.8906C38.9209 34.8906 38.2012 35.3026 37.7088 36.1264C37.2211 36.9503 36.9725 38.0701 36.9631 39.4858H37.0625C37.2803 39.0549 37.5739 38.688 37.9432 38.3849C38.3172 38.0772 38.741 37.8428 39.2145 37.6818C39.6927 37.5161 40.197 37.4332 40.7273 37.4332C41.589 37.4332 42.3561 37.6368 43.0284 38.044C43.7008 38.4465 44.2311 39.0005 44.6193 39.706C45.0076 40.4115 45.2017 41.2187 45.2017 42.1278C45.2017 43.1127 44.9721 43.9886 44.5128 44.7557C44.0582 45.5227 43.4214 46.1241 42.6023 46.5597C41.7879 46.9905 40.8409 47.2036 39.7614 47.1989ZM39.7472 44.7841C40.2206 44.7841 40.6444 44.6705 41.0185 44.4432C41.3925 44.2159 41.6861 43.9081 41.8991 43.5199C42.1122 43.1316 42.2188 42.696 42.2188 42.2131C42.2188 41.7301 42.1122 41.2969 41.8991 40.9134C41.6908 40.5298 41.402 40.2244 41.0327 39.9972C40.6634 39.7699 40.242 39.6562 39.7685 39.6562C39.4134 39.6562 39.0843 39.7225 38.7812 39.8551C38.483 39.9877 38.2202 40.1723 37.9929 40.4091C37.7704 40.6458 37.5952 40.9205 37.4673 41.233C37.3395 41.5407 37.2756 41.8698 37.2756 42.2202C37.2756 42.6889 37.3821 43.1174 37.5952 43.5057C37.813 43.8939 38.1065 44.2041 38.4759 44.4361C38.8499 44.6681 39.2737 44.7841 39.7472 44.7841Z" fill="black"/>
</svg>
