<svg width="80" height="80" viewBox="0 0 80 80" fill="none" xmlns="http://www.w3.org/2000/svg">
<circle cx="40" cy="40" r="40" fill="#FFA500"/>
<circle cx="40" cy="40" r="24" fill="white" fill-opacity="0.7"/>
<path d="M32.5554 46.7988C31.4948 46.7988 30.5502 46.6165 29.7216 46.252C28.8977 45.8826 28.2467 45.376 27.7685 44.7321C27.295 44.0834 27.0511 43.3353 27.0369 42.4878H30.1335C30.1525 42.8429 30.2685 43.1554 30.4815 43.4253C30.6993 43.6904 30.9882 43.8964 31.348 44.0432C31.7079 44.1899 32.1127 44.2633 32.5625 44.2633C33.0312 44.2633 33.4455 44.1805 33.8054 44.0147C34.1652 43.849 34.447 43.6194 34.6506 43.3258C34.8542 43.0323 34.956 42.6937 34.956 42.3102C34.956 41.9219 34.8471 41.5787 34.6293 41.2804C34.4162 40.9773 34.1084 40.7406 33.706 40.5701C33.3082 40.3997 32.8348 40.3145 32.2855 40.3145H30.929V38.0559H32.2855C32.7495 38.0559 33.1591 37.9754 33.5142 37.8145C33.8741 37.6535 34.1534 37.4309 34.3523 37.1469C34.5511 36.858 34.6506 36.5219 34.6506 36.1383C34.6506 35.7737 34.563 35.4541 34.3878 35.1795C34.2173 34.9002 33.9759 34.6824 33.6634 34.5261C33.3556 34.3699 32.9957 34.2917 32.5838 34.2917C32.1671 34.2917 31.786 34.3675 31.4403 34.519C31.0947 34.6658 30.8177 34.8765 30.6094 35.1511C30.401 35.4257 30.2898 35.7477 30.2756 36.117H27.3281C27.3423 35.279 27.5814 34.5403 28.0455 33.9011C28.5095 33.2619 29.1345 32.7624 29.9205 32.4025C30.7112 32.0379 31.6037 31.8557 32.598 31.8557C33.6018 31.8557 34.4801 32.0379 35.233 32.4025C35.9858 32.7671 36.5705 33.2595 36.9872 33.8798C37.4086 34.4953 37.617 35.1866 37.6122 35.9537C37.617 36.7681 37.3636 37.4475 36.8523 37.992C36.3456 38.5365 35.6851 38.8822 34.8707 39.029V39.1426C35.9408 39.2799 36.7552 39.6516 37.3139 40.2576C37.8774 40.859 38.1567 41.6118 38.152 42.5162C38.1567 43.3448 37.9176 44.081 37.4347 44.725C36.9564 45.3689 36.2959 45.8755 35.4531 46.2449C34.6103 46.6142 33.6444 46.7988 32.5554 46.7988ZM45.7887 46.7988C44.695 46.7988 43.7219 46.6213 42.8697 46.2662C42.0221 45.9063 41.3569 45.4163 40.8739 44.796C40.391 44.1757 40.1495 43.4726 40.1495 42.6866C40.1495 42.0806 40.2868 41.5242 40.5614 41.0176C40.8408 40.5062 41.2196 40.0825 41.6978 39.7463C42.176 39.4054 42.7111 39.1876 43.3029 39.0929V38.9934C42.5264 38.8372 41.8967 38.4608 41.4137 37.8642C40.9308 37.2629 40.6893 36.5645 40.6893 35.769C40.6893 35.0162 40.9094 34.3462 41.3498 33.7591C41.7901 33.1672 42.3938 32.7032 43.1609 32.367C43.9326 32.0261 44.8086 31.8557 45.7887 31.8557C46.7688 31.8557 47.6424 32.0261 48.4094 32.367C49.1812 32.7079 49.7873 33.1743 50.2276 33.7662C50.668 34.3533 50.8905 35.0209 50.8952 35.769C50.8905 36.5692 50.6443 37.2676 50.1566 37.8642C49.6689 38.4608 49.0439 38.8372 48.2816 38.9934V39.0929C48.864 39.1876 49.3919 39.4054 49.8654 39.7463C50.3436 40.0825 50.7224 40.5062 51.0018 41.0176C51.2859 41.5242 51.4303 42.0806 51.435 42.6866C51.4303 43.4726 51.1864 44.1757 50.7035 44.796C50.2205 45.4163 49.5529 45.9063 48.7006 46.2662C47.8531 46.6213 46.8825 46.7988 45.7887 46.7988ZM45.7887 44.5403C46.2764 44.5403 46.7025 44.4527 47.0671 44.2775C47.4317 44.0976 47.7158 43.8514 47.9194 43.5389C48.1277 43.2217 48.2319 42.8571 48.2319 42.4451C48.2319 42.0237 48.1254 41.6521 47.9123 41.3301C47.6992 41.0034 47.4104 40.7477 47.0458 40.563C46.6812 40.3736 46.2622 40.279 45.7887 40.279C45.32 40.279 44.9009 40.3736 44.5316 40.563C44.1623 40.7477 43.8711 41.0034 43.658 41.3301C43.4497 41.6521 43.3455 42.0237 43.3455 42.4451C43.3455 42.8571 43.4473 43.2217 43.6509 43.5389C43.8545 43.8514 44.141 44.0976 44.5103 44.2775C44.8796 44.4527 45.3058 44.5403 45.7887 44.5403ZM45.7887 38.0417C46.1959 38.0417 46.5581 37.9589 46.8754 37.7932C47.1926 37.6274 47.4412 37.3978 47.6211 37.1042C47.801 36.8107 47.891 36.4721 47.891 36.0886C47.891 35.7098 47.801 35.3784 47.6211 35.0943C47.4412 34.8055 47.195 34.5806 46.8825 34.4196C46.57 34.2539 46.2054 34.171 45.7887 34.171C45.3768 34.171 45.0122 34.2539 44.695 34.4196C44.3777 34.5806 44.1291 34.8055 43.9492 35.0943C43.774 35.3784 43.6864 35.7098 43.6864 36.0886C43.6864 36.4721 43.7764 36.8107 43.9563 37.1042C44.1362 37.3978 44.3848 37.6274 44.7021 37.7932C45.0193 37.9589 45.3815 38.0417 45.7887 38.0417Z" fill="black"/>
</svg>
