<svg width="80" height="80" viewBox="0 0 80 80" fill="none" xmlns="http://www.w3.org/2000/svg">
<circle cx="40" cy="40" r="40" fill="#57B04A"/>
<circle cx="40" cy="40" r="24" fill="white" fill-opacity="0.7"/>
<path d="M29.579 47.6V45.3841L34.7565 40.59C35.1969 40.1639 35.5662 39.7804 35.8645 39.4395C36.1675 39.0986 36.3972 38.7647 36.5534 38.438C36.7097 38.1066 36.7878 37.7491 36.7878 37.3656C36.7878 36.9395 36.6907 36.5725 36.4966 36.2647C36.3025 35.9522 36.0373 35.7131 35.7011 35.5474C35.365 35.377 34.9838 35.2917 34.5577 35.2917C34.1126 35.2917 33.7243 35.3817 33.3929 35.5616C33.0615 35.7415 32.8058 35.9996 32.6258 36.3358C32.4459 36.6719 32.356 37.072 32.356 37.5361H29.4369C29.4369 36.5844 29.6524 35.7581 30.0832 35.0574C30.5141 34.3566 31.1178 33.8145 31.8943 33.4309C32.6708 33.0474 33.5657 32.8557 34.579 32.8557C35.6206 32.8557 36.5274 33.0403 37.2991 33.4096C38.0757 33.7742 38.6794 34.2808 39.1102 34.9295C39.5411 35.5782 39.7565 36.3216 39.7565 37.1596C39.7565 37.7089 39.6476 38.251 39.4298 38.7861C39.2168 39.3211 38.8356 39.9153 38.2864 40.5687C37.7371 41.2174 36.963 41.9963 35.9639 42.9054L33.8403 44.9863V45.0858H39.9483V47.6H29.579ZM48.5048 33.0545V47.6H45.4295V35.9736H45.3442L42.0133 38.0616V35.3344L45.6141 33.0545H48.5048Z" fill="black"/>
</svg>
