<svg width="80" height="80" viewBox="0 0 80 80" fill="none" xmlns="http://www.w3.org/2000/svg">
<circle cx="40" cy="40" r="40" fill="#57B04A"/>
<circle cx="40" cy="40" r="24" fill="white" fill-opacity="0.7"/>
<path d="M26.9588 44.0432V41.6213L33.0312 32.0545H35.1193V35.4068H33.8835L30.0554 41.465V41.5787H38.6847V44.0432H26.9588ZM33.9403 46.6V43.3045L33.9972 42.2321V32.0545H36.8807V46.6H33.9403ZM46.0462 46.7988C45.0424 46.7988 44.1475 46.6142 43.3615 46.2449C42.5803 45.8755 41.96 45.3665 41.5007 44.7179C41.0414 44.0692 40.8023 43.3258 40.7834 42.4878H43.7663C43.7995 43.0512 44.0362 43.5081 44.4766 43.8585C44.9169 44.2089 45.4401 44.3841 46.0462 44.3841C46.5291 44.3841 46.9553 44.2775 47.3246 44.0645C47.6986 43.8467 47.9898 43.546 48.1982 43.1625C48.4112 42.7742 48.5178 42.3291 48.5178 41.8272C48.5178 41.3159 48.4089 40.8661 48.1911 40.4778C47.978 40.0896 47.6821 39.7865 47.3033 39.5687C46.9245 39.3509 46.4912 39.2397 46.0036 39.2349C45.5774 39.2349 45.1631 39.3225 44.7607 39.4977C44.3629 39.6729 44.0528 39.912 43.8303 40.215L41.0959 39.725L41.7848 32.0545H50.6768V34.5687H44.3203L43.9439 38.2122H44.0291C44.2848 37.8523 44.6707 37.554 45.1868 37.3173C45.7029 37.0806 46.2805 36.9622 46.9197 36.9622C47.7957 36.9622 48.5769 37.1682 49.2635 37.5801C49.95 37.992 50.4922 38.5578 50.8899 39.2775C51.2876 39.9925 51.4841 40.8164 51.4794 41.7491C51.4841 42.7292 51.2569 43.6004 50.7976 44.3628C50.343 45.1203 49.7062 45.7169 48.8871 46.1525C48.0727 46.5834 47.1257 46.7988 46.0462 46.7988Z" fill="black"/>
</svg>
