<svg width="80" height="80" viewBox="0 0 80 80" fill="none" xmlns="http://www.w3.org/2000/svg">
<circle cx="40" cy="40" r="40" fill="#FF0000"/>
<circle cx="40" cy="40" r="24" fill="white" fill-opacity="0.7"/>
<path d="M35.5071 32.4545V47H32.4318V35.3736H32.3466L29.0156 37.4616V34.7344L32.6165 32.4545H35.5071ZM44.6673 47.3196C43.4457 47.3149 42.3945 47.0142 41.5138 46.4176C40.6379 45.821 39.9632 44.9569 39.4897 43.8253C39.021 42.6937 38.7889 41.3324 38.7937 39.7415C38.7937 38.1553 39.0281 36.8035 39.4968 35.6861C39.9703 34.5687 40.645 33.7187 41.521 33.1364C42.4016 32.5492 43.4504 32.2557 44.6673 32.2557C45.8841 32.2557 46.9305 32.5492 47.8065 33.1364C48.6871 33.7235 49.3642 34.5758 49.8377 35.6932C50.3112 36.8059 50.5456 38.1553 50.5408 39.7415C50.5408 41.3371 50.3041 42.7008 49.8306 43.8324C49.3619 44.964 48.6895 45.8281 47.8136 46.4247C46.9376 47.0213 45.8888 47.3196 44.6673 47.3196ZM44.6673 44.7699C45.5006 44.7699 46.1658 44.3509 46.663 43.5128C47.1602 42.6747 47.4064 41.4176 47.4016 39.7415C47.4016 38.6383 47.288 37.7197 47.0607 36.9858C46.8382 36.2519 46.521 35.7003 46.109 35.331C45.7018 34.9616 45.2212 34.777 44.6673 34.777C43.8387 34.777 43.1758 35.1913 42.6786 36.0199C42.1815 36.8485 41.9305 38.089 41.9258 39.7415C41.9258 40.8589 42.0371 41.7917 42.2596 42.5398C42.4869 43.2831 42.8065 43.8419 43.2184 44.2159C43.6303 44.5852 44.1133 44.7699 44.6673 44.7699Z" fill="black"/>
</svg>
