<svg width="80" height="80" viewBox="0 0 80 80" fill="none" xmlns="http://www.w3.org/2000/svg">
<circle cx="40" cy="40" r="40" fill="#FFA500"/>
<circle cx="40" cy="40" r="24" fill="white" fill-opacity="0.7"/>
<path d="M27.979 47.6V45.3841L33.1565 40.59C33.5969 40.1639 33.9662 39.7804 34.2645 39.4395C34.5675 39.0986 34.7971 38.7647 34.9534 38.438C35.1096 38.1066 35.1878 37.7491 35.1878 37.3656C35.1878 36.9395 35.0907 36.5725 34.8966 36.2647C34.7025 35.9522 34.4373 35.7131 34.1011 35.5474C33.765 35.377 33.3838 35.2917 32.9577 35.2917C32.5126 35.2917 32.1243 35.3817 31.7929 35.5616C31.4614 35.7415 31.2058 35.9996 31.0258 36.3358C30.8459 36.6719 30.756 37.072 30.756 37.5361H27.8369C27.8369 36.5844 28.0524 35.7581 28.4832 35.0574C28.9141 34.3566 29.5178 33.8145 30.2943 33.4309C31.0708 33.0474 31.9657 32.8557 32.979 32.8557C34.0206 32.8557 34.9274 33.0403 35.6991 33.4096C36.4757 33.7742 37.0793 34.2808 37.5102 34.9295C37.9411 35.5782 38.1565 36.3216 38.1565 37.1596C38.1565 37.7089 38.0476 38.251 37.8298 38.7861C37.6167 39.3211 37.2356 39.9153 36.6864 40.5687C36.1371 41.2174 35.363 41.9963 34.3639 42.9054L32.2403 44.9863V45.0858H38.3483V47.6H27.979ZM45.953 47.7988C44.8924 47.7988 43.9478 47.6165 43.1192 47.252C42.2954 46.8826 41.6443 46.376 41.1661 45.7321C40.6926 45.0834 40.4488 44.3353 40.4346 43.4878H43.5312C43.5501 43.8429 43.6661 44.1554 43.8792 44.4253C44.097 44.6904 44.3858 44.8964 44.7457 45.0432C45.1055 45.1899 45.5103 45.2633 45.9601 45.2633C46.4289 45.2633 46.8432 45.1805 47.203 45.0147C47.5629 44.849 47.8446 44.6194 48.0482 44.3258C48.2518 44.0323 48.3536 43.6937 48.3536 43.3102C48.3536 42.9219 48.2447 42.5787 48.0269 42.2804C47.8138 41.9773 47.5061 41.7406 47.1036 41.5701C46.7059 41.3997 46.2324 41.3145 45.6832 41.3145H44.3266V39.0559H45.6832C46.1472 39.0559 46.5567 38.9754 46.9118 38.8145C47.2717 38.6535 47.5511 38.4309 47.7499 38.1469C47.9488 37.858 48.0482 37.5219 48.0482 37.1383C48.0482 36.7737 47.9606 36.4541 47.7854 36.1795C47.615 35.9002 47.3735 35.6824 47.061 35.5261C46.7532 35.3699 46.3934 35.2917 45.9815 35.2917C45.5648 35.2917 45.1836 35.3675 44.838 35.519C44.4923 35.6658 44.2154 35.8765 44.007 36.1511C43.7987 36.4257 43.6874 36.7477 43.6732 37.117H40.7258C40.74 36.279 40.9791 35.5403 41.4431 34.9011C41.9071 34.2619 42.5321 33.7624 43.3181 33.4025C44.1088 33.0379 45.0013 32.8557 45.9957 32.8557C46.9994 32.8557 47.8778 33.0379 48.6306 33.4025C49.3834 33.7671 49.9682 34.2595 50.3849 34.8798C50.8063 35.4953 51.0146 36.1866 51.0099 36.9537C51.0146 37.7681 50.7613 38.4475 50.2499 38.992C49.7433 39.5365 49.0828 39.8822 48.2684 40.029V40.1426C49.3385 40.2799 50.1529 40.6516 50.7116 41.2576C51.275 41.859 51.5544 42.6118 51.5496 43.5162C51.5544 44.3448 51.3153 45.081 50.8323 45.725C50.3541 46.3689 49.6936 46.8755 48.8508 47.2449C48.008 47.6142 47.0421 47.7988 45.953 47.7988Z" fill="black"/>
</svg>
