<svg width="80" height="80" viewBox="0 0 80 80" fill="none" xmlns="http://www.w3.org/2000/svg">
<circle cx="40" cy="40" r="40" fill="#57B04A"/>
<circle cx="40" cy="40" r="24" fill="white" fill-opacity="0.7"/>
<path d="M26.9588 44.0432V41.6213L33.0312 32.0545H35.1193V35.4068H33.8835L30.0554 41.465V41.5787H38.6847V44.0432H26.9588ZM33.9403 46.6V43.3045L33.9972 42.2321V32.0545H36.8807V46.6H33.9403ZM40.7337 46.6V44.3841L45.9112 39.59C46.3516 39.1639 46.7209 38.7804 47.0192 38.4395C47.3222 38.0986 47.5518 37.7647 47.7081 37.438C47.8643 37.1066 47.9425 36.7491 47.9425 36.3656C47.9425 35.9395 47.8454 35.5725 47.6513 35.2647C47.4571 34.9522 47.192 34.7131 46.8558 34.5474C46.5196 34.377 46.1385 34.2917 45.7124 34.2917C45.2673 34.2917 44.879 34.3817 44.5476 34.5616C44.2161 34.7415 43.9605 34.9996 43.7805 35.3358C43.6006 35.6719 43.5107 36.072 43.5107 36.5361H40.5916C40.5916 35.5844 40.8071 34.7581 41.2379 34.0574C41.6688 33.3566 42.2725 32.8145 43.049 32.4309C43.8255 32.0474 44.7204 31.8557 45.7337 31.8557C46.7753 31.8557 47.6821 32.0403 48.4538 32.4096C49.2304 32.7742 49.834 33.2808 50.2649 33.9295C50.6958 34.5782 50.9112 35.3216 50.9112 36.1596C50.9112 36.7089 50.8023 37.251 50.5845 37.7861C50.3714 38.3211 49.9903 38.9153 49.4411 39.5687C48.8918 40.2174 48.1177 40.9963 47.1186 41.9054L44.995 43.9863V44.0858H51.103V46.6H40.7337Z" fill="black"/>
</svg>
