<svg width="80" height="80" viewBox="0 0 80 80" fill="none" xmlns="http://www.w3.org/2000/svg">
<circle cx="40" cy="40" r="40" fill="#57B04A"/>
<circle cx="40" cy="40" r="24" fill="white" fill-opacity="0.7"/>
<path d="M33.5554 47.7988C32.4948 47.7988 31.5502 47.6165 30.7216 47.252C29.8977 46.8826 29.2467 46.376 28.7685 45.7321C28.295 45.0834 28.0511 44.3353 28.0369 43.4878H31.1335C31.1525 43.8429 31.2685 44.1554 31.4815 44.4253C31.6993 44.6904 31.9882 44.8964 32.348 45.0432C32.7079 45.1899 33.1127 45.2633 33.5625 45.2633C34.0312 45.2633 34.4455 45.1805 34.8054 45.0147C35.1652 44.849 35.447 44.6194 35.6506 44.3258C35.8542 44.0323 35.956 43.6937 35.956 43.3102C35.956 42.9219 35.8471 42.5787 35.6293 42.2804C35.4162 41.9773 35.1084 41.7406 34.706 41.5701C34.3082 41.3997 33.8348 41.3145 33.2855 41.3145H31.929V39.0559H33.2855C33.7495 39.0559 34.1591 38.9754 34.5142 38.8145C34.8741 38.6535 35.1534 38.4309 35.3523 38.1469C35.5511 37.858 35.6506 37.5219 35.6506 37.1383C35.6506 36.7737 35.563 36.4541 35.3878 36.1795C35.2173 35.9002 34.9759 35.6824 34.6634 35.5261C34.3556 35.3699 33.9957 35.2917 33.5838 35.2917C33.1671 35.2917 32.786 35.3675 32.4403 35.519C32.0947 35.6658 31.8177 35.8765 31.6094 36.1511C31.401 36.4257 31.2898 36.7477 31.2756 37.117H28.3281C28.3423 36.279 28.5814 35.5403 29.0455 34.9011C29.5095 34.2619 30.1345 33.7624 30.9205 33.4025C31.7112 33.0379 32.6037 32.8557 33.598 32.8557C34.6018 32.8557 35.4801 33.0379 36.233 33.4025C36.9858 33.7671 37.5705 34.2595 37.9872 34.8798C38.4086 35.4953 38.617 36.1866 38.6122 36.9537C38.617 37.7681 38.3636 38.4475 37.8523 38.992C37.3456 39.5365 36.6851 39.8822 35.8707 40.029V40.1426C36.9408 40.2799 37.7552 40.6516 38.3139 41.2576C38.8774 41.859 39.1567 42.6118 39.152 43.5162C39.1567 44.3448 38.9176 45.081 38.4347 45.725C37.9564 46.3689 37.2959 46.8755 36.4531 47.2449C35.6103 47.6142 34.6444 47.7988 33.5554 47.7988ZM47.0657 47.9196C45.8441 47.9148 44.793 47.6142 43.9123 47.0176C43.0363 46.421 42.3616 45.5569 41.8881 44.4253C41.4194 43.2936 41.1874 41.9324 41.1921 40.3415C41.1921 38.7553 41.4265 37.4035 41.8952 36.2861C42.3687 35.1686 43.0434 34.3187 43.9194 33.7363C44.8001 33.1492 45.8488 32.8557 47.0657 32.8557C48.2826 32.8557 49.329 33.1492 50.2049 33.7363C51.0856 34.3235 51.7627 35.1757 52.2362 36.2932C52.7096 37.4058 52.944 38.7553 52.9393 40.3415C52.9393 41.9371 52.7025 43.3007 52.229 44.4324C51.7603 45.564 51.088 46.4281 50.212 47.0247C49.3361 47.6213 48.2873 47.9196 47.0657 47.9196ZM47.0657 45.3699C47.899 45.3699 48.5643 44.9508 49.0614 44.1128C49.5586 43.2747 49.8048 42.0176 49.8001 40.3415C49.8001 39.2382 49.6864 38.3197 49.4592 37.5858C49.2366 36.8519 48.9194 36.3003 48.5075 35.9309C48.1003 35.5616 47.6197 35.377 47.0657 35.377C46.2371 35.377 45.5742 35.7913 45.0771 36.6199C44.5799 37.4485 44.329 38.689 44.3242 40.3415C44.3242 41.4589 44.4355 42.3916 44.658 43.1397C44.8853 43.8831 45.2049 44.4418 45.6168 44.8159C46.0288 45.1852 46.5117 45.3699 47.0657 45.3699Z" fill="black"/>
</svg>
