<svg width="80" height="80" viewBox="0 0 80 80" fill="none" xmlns="http://www.w3.org/2000/svg">
<circle cx="40" cy="40" r="40" fill="#FF0000"/>
<circle cx="40" cy="40" r="24" fill="white" fill-opacity="0.7"/>
<path d="M26.9588 44.0432V41.6213L33.0312 32.0545H35.1193V35.4068H33.8835L30.0554 41.465V41.5787H38.6847V44.0432H26.9588ZM33.9403 46.6V43.3045L33.9972 42.2321V32.0545H36.8807V46.6H33.9403ZM46.4368 46.9196C45.2152 46.9148 44.1641 46.6142 43.2834 46.0176C42.4074 45.421 41.7327 44.5569 41.2592 43.4253C40.7905 42.2936 40.5585 40.9324 40.5632 39.3415C40.5632 37.7553 40.7976 36.4035 41.2663 35.2861C41.7398 34.1686 42.4145 33.3187 43.2905 32.7363C44.1712 32.1492 45.2199 31.8557 46.4368 31.8557C47.6536 31.8557 48.7 32.1492 49.576 32.7363C50.4567 33.3235 51.1338 34.1757 51.6072 35.2932C52.0807 36.4058 52.3151 37.7553 52.3104 39.3415C52.3104 40.9371 52.0736 42.3007 51.6001 43.4324C51.1314 44.564 50.459 45.4281 49.5831 46.0247C48.7071 46.6213 47.6584 46.9196 46.4368 46.9196ZM46.4368 44.3699C47.2701 44.3699 47.9354 43.9508 48.4325 43.1128C48.9297 42.2747 49.1759 41.0176 49.1712 39.3415C49.1712 38.2382 49.0575 37.3197 48.8303 36.5858C48.6077 35.8519 48.2905 35.3003 47.8786 34.9309C47.4714 34.5616 46.9908 34.377 46.4368 34.377C45.6082 34.377 44.9453 34.7913 44.4482 35.6199C43.951 36.4485 43.7 37.689 43.6953 39.3415C43.6953 40.4589 43.8066 41.3916 44.0291 42.1397C44.2564 42.8831 44.576 43.4418 44.9879 43.8159C45.3999 44.1852 45.8828 44.3699 46.4368 44.3699Z" fill="black"/>
</svg>
