<svg width="80" height="80" viewBox="0 0 80 80" fill="none" xmlns="http://www.w3.org/2000/svg">
<circle cx="40" cy="40" r="40" fill="#FF0000"/>
<circle cx="40" cy="40" r="24" fill="white" fill-opacity="0.7"/>
<path d="M34.9554 47.7988C33.8948 47.7988 32.9502 47.6165 32.1216 47.252C31.2978 46.8826 30.6467 46.376 30.1685 45.7321C29.695 45.0834 29.4512 44.3353 29.437 43.4878H32.5335C32.5525 43.8429 32.6685 44.1554 32.8816 44.4253C33.0994 44.6904 33.3882 44.8964 33.748 45.0432C34.1079 45.1899 34.5127 45.2633 34.9625 45.2633C35.4313 45.2633 35.8456 45.1805 36.2054 45.0147C36.5653 44.849 36.847 44.6194 37.0506 44.3258C37.2542 44.0323 37.356 43.6937 37.356 43.3102C37.356 42.9219 37.2471 42.5787 37.0293 42.2804C36.8162 41.9773 36.5085 41.7406 36.106 41.5701C35.7083 41.3997 35.2348 41.3145 34.6855 41.3145H33.329V39.0559H34.6855C35.1496 39.0559 35.5591 38.9754 35.9142 38.8145C36.2741 38.6535 36.5534 38.4309 36.7523 38.1469C36.9512 37.858 37.0506 37.5219 37.0506 37.1383C37.0506 36.7737 36.963 36.4541 36.7878 36.1795C36.6174 35.9002 36.3759 35.6824 36.0634 35.5261C35.7556 35.3699 35.3958 35.2917 34.9838 35.2917C34.5672 35.2917 34.186 35.3675 33.8404 35.519C33.4947 35.6658 33.2177 35.8765 33.0094 36.1511C32.8011 36.4257 32.6898 36.7477 32.6756 37.117H29.7281C29.7424 36.279 29.9815 35.5403 30.4455 34.9011C30.9095 34.2619 31.5345 33.7624 32.3205 33.4025C33.1112 33.0379 34.0037 32.8557 34.998 32.8557C36.0018 32.8557 36.8801 33.0379 37.633 33.4025C38.3858 33.7671 38.9706 34.2595 39.3872 34.8798C39.8086 35.4953 40.017 36.1866 40.0122 36.9537C40.017 37.7681 39.7637 38.4475 39.2523 38.992C38.7457 39.5365 38.0852 39.8822 37.2708 40.029V40.1426C38.3408 40.2799 39.1552 40.6516 39.7139 41.2576C40.2774 41.859 40.5567 42.6118 40.552 43.5162C40.5567 44.3448 40.3176 45.081 39.8347 45.725C39.3565 46.3689 38.696 46.8755 37.8531 47.2449C37.0103 47.6142 36.0444 47.7988 34.9554 47.7988ZM49.0907 33.0545V47.6H46.0154V35.9736H45.9302L42.5992 38.0616V35.3344L46.2001 33.0545H49.0907Z" fill="black"/>
</svg>
