<svg width="80" height="80" viewBox="0 0 80 80" fill="none" xmlns="http://www.w3.org/2000/svg">
<circle cx="40" cy="40" r="40" fill="#FF0000"/>
<circle cx="40" cy="40" r="24" fill="white" fill-opacity="0.7"/>
<path d="M27.979 47.6V45.3841L33.1565 40.59C33.5969 40.1639 33.9662 39.7804 34.2645 39.4395C34.5675 39.0986 34.7971 38.7647 34.9534 38.438C35.1096 38.1066 35.1878 37.7491 35.1878 37.3656C35.1878 36.9395 35.0907 36.5725 34.8966 36.2647C34.7025 35.9522 34.4373 35.7131 34.1011 35.5474C33.765 35.377 33.3838 35.2917 32.9577 35.2917C32.5126 35.2917 32.1243 35.3817 31.7929 35.5616C31.4614 35.7415 31.2058 35.9996 31.0258 36.3358C30.8459 36.6719 30.756 37.072 30.756 37.5361H27.8369C27.8369 36.5844 28.0524 35.7581 28.4832 35.0574C28.9141 34.3566 29.5178 33.8145 30.2943 33.4309C31.0708 33.0474 31.9657 32.8557 32.979 32.8557C34.0206 32.8557 34.9274 33.0403 35.6991 33.4096C36.4757 33.7742 37.0793 34.2808 37.5102 34.9295C37.9411 35.5782 38.1565 36.3216 38.1565 37.1596C38.1565 37.7089 38.0476 38.251 37.8298 38.7861C37.6167 39.3211 37.2356 39.9153 36.6864 40.5687C36.1371 41.2174 35.363 41.9963 34.3639 42.9054L32.2403 44.9863V45.0858H38.3483V47.6H27.979ZM45.8891 47.7988C44.8853 47.7988 43.9904 47.6142 43.2045 47.2449C42.4232 46.8755 41.8029 46.3665 41.3437 45.7179C40.8844 45.0692 40.6453 44.3258 40.6263 43.4878H43.6093C43.6424 44.0512 43.8792 44.5081 44.3195 44.8585C44.7599 45.2089 45.2831 45.3841 45.8891 45.3841C46.3721 45.3841 46.7982 45.2775 47.1675 45.0645C47.5416 44.8467 47.8328 44.546 48.0411 44.1625C48.2542 43.7742 48.3607 43.3291 48.3607 42.8272C48.3607 42.3159 48.2518 41.8661 48.034 41.4778C47.8209 41.0896 47.525 40.7865 47.1462 40.5687C46.7674 40.3509 46.3342 40.2397 45.8465 40.2349C45.4204 40.2349 45.0061 40.3225 44.6036 40.4977C44.2059 40.6729 43.8958 40.912 43.6732 41.215L40.9388 40.725L41.6278 33.0545H50.5198V35.5687H44.1633L43.7868 39.2122H43.8721C44.1278 38.8523 44.5136 38.554 45.0297 38.3173C45.5458 38.0806 46.1235 37.9622 46.7627 37.9622C47.6386 37.9622 48.4199 38.1682 49.1065 38.5801C49.793 38.992 50.3351 39.5578 50.7329 40.2775C51.1306 40.9925 51.3271 41.8164 51.3224 42.7491C51.3271 43.7292 51.0998 44.6004 50.6405 45.3628C50.186 46.1203 49.5492 46.7169 48.73 47.1525C47.9156 47.5834 46.9687 47.7988 45.8891 47.7988Z" fill="black"/>
</svg>
