<svg width="80" height="80" viewBox="0 0 80 80" fill="none" xmlns="http://www.w3.org/2000/svg">
<circle cx="40" cy="40" r="40" fill="#FF0000"/>
<circle cx="40" cy="40" r="24" fill="white" fill-opacity="0.7"/>
<path d="M34.1554 46.7988C33.0948 46.7988 32.1502 46.6165 31.3216 46.252C30.4977 45.8826 29.8467 45.376 29.3685 44.7321C28.895 44.0834 28.6511 43.3353 28.6369 42.4878H31.7335C31.7525 42.8429 31.8685 43.1554 32.0815 43.4253C32.2993 43.6904 32.5882 43.8964 32.948 44.0432C33.3079 44.1899 33.7127 44.2633 34.1625 44.2633C34.6313 44.2633 35.0456 44.1805 35.4054 44.0147C35.7653 43.849 36.047 43.6194 36.2506 43.3258C36.4542 43.0323 36.556 42.6937 36.556 42.3102C36.556 41.9219 36.4471 41.5787 36.2293 41.2804C36.0162 40.9773 35.7084 40.7406 35.306 40.5701C34.9082 40.3997 34.4348 40.3145 33.8855 40.3145H32.529V38.0559H33.8855C34.3495 38.0559 34.7591 37.9754 35.1142 37.8145C35.4741 37.6535 35.7534 37.4309 35.9523 37.1469C36.1511 36.858 36.2506 36.5219 36.2506 36.1383C36.2506 35.7737 36.163 35.4541 35.9878 35.1795C35.8173 34.9002 35.5759 34.6824 35.2634 34.5261C34.9556 34.3699 34.5957 34.2917 34.1838 34.2917C33.7671 34.2917 33.386 34.3675 33.0403 34.519C32.6947 34.6658 32.4177 34.8765 32.2094 35.1511C32.001 35.4257 31.8898 35.7477 31.8756 36.117H28.9281C28.9423 35.279 29.1814 34.5403 29.6455 33.9011C30.1095 33.2619 30.7345 32.7624 31.5205 32.4025C32.3112 32.0379 33.2037 31.8557 34.198 31.8557C35.2018 31.8557 36.0801 32.0379 36.833 32.4025C37.5858 32.7671 38.1706 33.2595 38.5872 33.8798C39.0086 34.4953 39.217 35.1866 39.2122 35.9537C39.217 36.7681 38.9636 37.4475 38.4523 37.992C37.9457 38.5365 37.2851 38.8822 36.4707 39.029V39.1426C37.5408 39.2799 38.3552 39.6516 38.9139 40.2576C39.4774 40.859 39.7567 41.6118 39.752 42.5162C39.7567 43.3448 39.5176 44.081 39.0347 44.725C38.5564 45.3689 37.8959 45.8755 37.0531 46.2449C36.2103 46.6142 35.2444 46.7988 34.1554 46.7988ZM42.5379 46.6L48.5677 34.6682V34.5687H41.5435V32.0545H51.7495V34.6042L45.7126 46.6H42.5379Z" fill="black"/>
</svg>
