<svg width="80" height="80" viewBox="0 0 80 80" fill="none" xmlns="http://www.w3.org/2000/svg">
<circle cx="40" cy="40" r="40" fill="#FF0000"/>
<circle cx="40" cy="40" r="24" fill="white" fill-opacity="0.7"/>
<path d="M35.9071 33.0545V47.6H32.8318V35.9736H32.7466L29.4156 38.0616V35.3344L33.0165 33.0545H35.9071ZM44.6269 32.8557C45.375 32.8557 46.0947 32.9811 46.786 33.2321C47.482 33.483 48.1023 33.8831 48.6468 34.4324C49.196 34.9816 49.6293 35.7108 49.9465 36.6199C50.2685 37.5242 50.4318 38.6345 50.4366 39.9508C50.4366 41.1866 50.2969 42.2898 50.0175 43.2605C49.7429 44.2264 49.3476 45.0479 48.8315 45.725C48.3154 46.4021 47.6927 46.9182 46.9636 47.2733C46.2344 47.6236 45.42 47.7988 44.5204 47.7988C43.5497 47.7988 42.6927 47.6118 41.9494 47.2378C41.206 46.859 40.607 46.3452 40.1525 45.6966C39.7027 45.0432 39.4304 44.3093 39.3357 43.4949H42.3684C42.4868 44.0252 42.7353 44.4371 43.1141 44.7307C43.4929 45.0195 43.9617 45.1639 44.5204 45.1639C45.4673 45.1639 46.187 44.752 46.6795 43.9281C47.1719 43.0995 47.4205 41.9655 47.4252 40.5261H47.3258C47.108 40.9522 46.8144 41.3192 46.4451 41.627C46.0758 41.93 45.652 42.1644 45.1738 42.3301C44.7003 42.4958 44.196 42.5787 43.661 42.5787C42.804 42.5787 42.0393 42.3774 41.367 41.975C40.6946 41.5725 40.1643 41.0185 39.7761 40.313C39.3878 39.6076 39.1937 38.8026 39.1937 37.8983C39.1889 36.9229 39.4138 36.054 39.8684 35.2917C40.3229 34.5294 40.9574 33.9328 41.7718 33.502C42.5909 33.0664 43.5426 32.8509 44.6269 32.8557ZM44.6482 35.2704C44.17 35.2704 43.7439 35.3841 43.3698 35.6113C43.0005 35.8386 42.7069 36.144 42.4891 36.5275C42.2761 36.9111 42.1719 37.3396 42.1766 37.813C42.1766 38.2913 42.2808 38.7221 42.4891 39.1057C42.7022 39.4844 42.991 39.7875 43.3556 40.0147C43.7249 40.2373 44.1463 40.3486 44.6198 40.3486C44.9749 40.3486 45.304 40.2823 45.607 40.1497C45.9101 40.0171 46.1728 39.8348 46.3954 39.6028C46.6227 39.3661 46.8002 39.0938 46.928 38.7861C47.0559 38.4783 47.1198 38.1516 47.1198 37.8059C47.1151 37.3467 47.0062 36.9253 46.7931 36.5417C46.58 36.1582 46.2865 35.8504 45.9124 35.6184C45.5384 35.3864 45.117 35.2704 44.6482 35.2704Z" fill="black"/>
</svg>
