<svg width="80" height="80" viewBox="0 0 80 80" fill="none" xmlns="http://www.w3.org/2000/svg">
<circle cx="40" cy="40" r="40" fill="#57B04A"/>
<circle cx="40" cy="40" r="24" fill="white" fill-opacity="0.7"/>
<path d="M33.5554 47.7988C32.4948 47.7988 31.5502 47.6165 30.7216 47.252C29.8977 46.8826 29.2467 46.376 28.7685 45.7321C28.295 45.0834 28.0511 44.3353 28.0369 43.4878H31.1335C31.1525 43.8429 31.2685 44.1554 31.4815 44.4253C31.6993 44.6904 31.9882 44.8964 32.348 45.0432C32.7079 45.1899 33.1127 45.2633 33.5625 45.2633C34.0312 45.2633 34.4455 45.1805 34.8054 45.0147C35.1652 44.849 35.447 44.6194 35.6506 44.3258C35.8542 44.0323 35.956 43.6937 35.956 43.3102C35.956 42.9219 35.8471 42.5787 35.6293 42.2804C35.4162 41.9773 35.1084 41.7406 34.706 41.5701C34.3082 41.3997 33.8348 41.3145 33.2855 41.3145H31.929V39.0559H33.2855C33.7495 39.0559 34.1591 38.9754 34.5142 38.8145C34.8741 38.6535 35.1534 38.4309 35.3523 38.1469C35.5511 37.858 35.6506 37.5219 35.6506 37.1383C35.6506 36.7737 35.563 36.4541 35.3878 36.1795C35.2173 35.9002 34.9759 35.6824 34.6634 35.5261C34.3556 35.3699 33.9957 35.2917 33.5838 35.2917C33.1671 35.2917 32.786 35.3675 32.4403 35.519C32.0947 35.6658 31.8177 35.8765 31.6094 36.1511C31.401 36.4257 31.2898 36.7477 31.2756 37.117H28.3281C28.3423 36.279 28.5814 35.5403 29.0455 34.9011C29.5095 34.2619 30.1345 33.7624 30.9205 33.4025C31.7112 33.0379 32.6037 32.8557 33.598 32.8557C34.6018 32.8557 35.4801 33.0379 36.233 33.4025C36.9858 33.7671 37.5705 34.2595 37.9872 34.8798C38.4086 35.4953 38.617 36.1866 38.6122 36.9537C38.617 37.7681 38.3636 38.4475 37.8523 38.992C37.3456 39.5365 36.6851 39.8822 35.8707 40.029V40.1426C36.9408 40.2799 37.7552 40.6516 38.3139 41.2576C38.8774 41.859 39.1567 42.6118 39.152 43.5162C39.1567 44.3448 38.9176 45.081 38.4347 45.725C37.9564 46.3689 37.2959 46.8755 36.4531 47.2449C35.6103 47.6142 34.6444 47.7988 33.5554 47.7988ZM46.945 47.7988C46.1969 47.7941 45.4748 47.6686 44.7788 47.4224C44.0875 47.1762 43.4672 46.7761 42.918 46.2221C42.3687 45.6682 41.9331 44.9343 41.6112 44.0204C41.2939 43.1066 41.1353 41.9844 41.1353 40.654C41.14 39.4324 41.2797 38.341 41.5543 37.3798C41.8337 36.4139 42.2314 35.5948 42.7475 34.9224C43.2683 34.2501 43.891 33.7387 44.6154 33.3883C45.3398 33.0332 46.1519 32.8557 47.0515 32.8557C48.0221 32.8557 48.8791 33.0451 49.6225 33.4238C50.3659 33.7979 50.9625 34.3069 51.4123 34.9508C51.8668 35.5948 52.1415 36.3168 52.2362 37.117H49.2035C49.0851 36.6104 48.8365 36.2127 48.4577 35.9238C48.079 35.635 47.6102 35.4906 47.0515 35.4906C46.1045 35.4906 45.3848 35.9025 44.8924 36.7264C44.4047 37.5503 44.1561 38.6701 44.1467 40.0858H44.2461C44.4639 39.6549 44.7575 39.2879 45.1268 38.9849C45.5008 38.6772 45.9246 38.4428 46.3981 38.2818C46.8763 38.1161 47.3806 38.0332 47.9109 38.0332C48.7726 38.0332 49.5397 38.2368 50.212 38.644C50.8844 39.0465 51.4147 39.6004 51.8029 40.3059C52.1912 41.0114 52.3853 41.8187 52.3853 42.7278C52.3853 43.7127 52.1557 44.5886 51.6964 45.3557C51.2418 46.1227 50.605 46.724 49.7859 47.1596C48.9715 47.5905 48.0245 47.8036 46.945 47.7988ZM46.9308 45.3841C47.4042 45.3841 47.828 45.2704 48.2021 45.0432C48.5761 44.8159 48.8697 44.5081 49.0827 44.1199C49.2958 43.7316 49.4023 43.296 49.4023 42.813C49.4023 42.3301 49.2958 41.8969 49.0827 41.5133C48.8744 41.1298 48.5856 40.8244 48.2163 40.5971C47.8469 40.3699 47.4255 40.2562 46.9521 40.2562C46.5969 40.2562 46.2679 40.3225 45.9648 40.4551C45.6665 40.5877 45.4038 40.7723 45.1765 41.0091C44.954 41.2458 44.7788 41.5204 44.6509 41.8329C44.5231 42.1407 44.4592 42.4698 44.4592 42.8201C44.4592 43.2889 44.5657 43.7174 44.7788 44.1057C44.9966 44.4939 45.2901 44.804 45.6594 45.0361C46.0335 45.2681 46.4573 45.3841 46.9308 45.3841Z" fill="black"/>
</svg>
