<svg width="80" height="80" viewBox="0 0 80 80" fill="none" xmlns="http://www.w3.org/2000/svg">
<circle cx="40" cy="40" r="40" fill="#FF0000"/>
<circle cx="40" cy="40" r="24" fill="white" fill-opacity="0.7"/>
<path d="M35.9071 33.0545V47.6H32.8318V35.9736H32.7466L29.4156 38.0616V35.3344L33.0165 33.0545H35.9071ZM44.7406 47.7988C43.68 47.7988 42.7354 47.6165 41.9068 47.252C41.0829 46.8826 40.4319 46.376 39.9536 45.7321C39.4802 45.0834 39.2363 44.3353 39.2221 43.4878H42.3187C42.3376 43.8429 42.4536 44.1554 42.6667 44.4253C42.8845 44.6904 43.1733 44.8964 43.5332 45.0432C43.893 45.1899 44.2979 45.2633 44.7477 45.2633C45.2164 45.2633 45.6307 45.1805 45.9906 45.0147C46.3504 44.849 46.6322 44.6194 46.8357 44.3258C47.0393 44.0323 47.1411 43.6937 47.1411 43.3102C47.1411 42.9219 47.0322 42.5787 46.8144 42.2804C46.6014 41.9773 46.2936 41.7406 45.8911 41.5701C45.4934 41.3997 45.0199 41.3145 44.4707 41.3145H43.1142V39.0559H44.4707C44.9347 39.0559 45.3443 38.9754 45.6994 38.8145C46.0592 38.6535 46.3386 38.4309 46.5375 38.1469C46.7363 37.858 46.8357 37.5219 46.8357 37.1383C46.8357 36.7737 46.7482 36.4541 46.573 36.1795C46.4025 35.9002 46.161 35.6824 45.8485 35.5261C45.5408 35.3699 45.1809 35.2917 44.769 35.2917C44.3523 35.2917 43.9712 35.3675 43.6255 35.519C43.2799 35.6658 43.0029 35.8765 42.7946 36.1511C42.5862 36.4257 42.475 36.7477 42.4607 37.117H39.5133C39.5275 36.279 39.7666 35.5403 40.2306 34.9011C40.6947 34.2619 41.3197 33.7624 42.1056 33.4025C42.8964 33.0379 43.7889 32.8557 44.7832 32.8557C45.787 32.8557 46.6653 33.0379 47.4181 33.4025C48.171 33.7671 48.7557 34.2595 49.1724 34.8798C49.5938 35.4953 49.8021 36.1866 49.7974 36.9537C49.8021 37.7681 49.5488 38.4475 49.0375 38.992C48.5308 39.5365 47.8703 39.8822 47.0559 40.029V40.1426C48.126 40.2799 48.9404 40.6516 49.4991 41.2576C50.0625 41.859 50.3419 42.6118 50.3372 43.5162C50.3419 44.3448 50.1028 45.081 49.6198 45.725C49.1416 46.3689 48.4811 46.8755 47.6383 47.2449C46.7955 47.6142 45.8296 47.7988 44.7406 47.7988Z" fill="black"/>
</svg>
