<svg width="80" height="80" viewBox="0 0 80 80" fill="none" xmlns="http://www.w3.org/2000/svg">
<circle cx="40" cy="40" r="40" fill="#FF0000"/>
<circle cx="40" cy="40" r="24" fill="white" fill-opacity="0.7"/>
<path d="M28.979 47.6V45.3841L34.1565 40.59C34.5969 40.1639 34.9662 39.7804 35.2645 39.4395C35.5675 39.0986 35.7972 38.7647 35.9534 38.438C36.1097 38.1066 36.1878 37.7491 36.1878 37.3656C36.1878 36.9395 36.0907 36.5725 35.8966 36.2647C35.7025 35.9522 35.4373 35.7131 35.1011 35.5474C34.765 35.377 34.3838 35.2917 33.9577 35.2917C33.5126 35.2917 33.1243 35.3817 32.7929 35.5616C32.4615 35.7415 32.2058 35.9996 32.0259 36.3358C31.8459 36.6719 31.756 37.072 31.756 37.5361H28.8369C28.8369 36.5844 29.0524 35.7581 29.4832 35.0574C29.9141 34.3566 30.5178 33.8145 31.2943 33.4309C32.0708 33.0474 32.9657 32.8557 33.979 32.8557C35.0206 32.8557 35.9274 33.0403 36.6992 33.4096C37.4757 33.7742 38.0794 34.2808 38.5102 34.9295C38.9411 35.5782 39.1565 36.3216 39.1565 37.1596C39.1565 37.7089 39.0476 38.251 38.8298 38.7861C38.6168 39.3211 38.2356 39.9153 37.6864 40.5687C37.1371 41.2174 36.363 41.9963 35.3639 42.9054L33.2403 44.9863V45.0858H39.3483V47.6H28.979ZM47.0028 47.7988C45.909 47.7988 44.936 47.6213 44.0837 47.2662C43.2362 46.9063 42.571 46.4163 42.088 45.796C41.605 45.1757 41.3636 44.4726 41.3636 43.6866C41.3636 43.0806 41.5009 42.5242 41.7755 42.0176C42.0549 41.5062 42.4336 41.0825 42.9119 40.7463C43.3901 40.4054 43.9251 40.1876 44.517 40.0929V39.9934C43.7405 39.8372 43.1107 39.4608 42.6278 38.8642C42.1448 38.2629 41.9033 37.5645 41.9033 36.769C41.9033 36.0162 42.1235 35.3462 42.5639 34.7591C43.0042 34.1672 43.6079 33.7032 44.3749 33.367C45.1467 33.0261 46.0227 32.8557 47.0028 32.8557C47.9829 32.8557 48.8565 33.0261 49.6235 33.367C50.3953 33.7079 51.0014 34.1743 51.4417 34.7662C51.882 35.3533 52.1046 36.0209 52.1093 36.769C52.1046 37.5692 51.8584 38.2676 51.3707 38.8642C50.883 39.4608 50.258 39.8372 49.4957 39.9934V40.0929C50.0781 40.1876 50.606 40.4054 51.0795 40.7463C51.5577 41.0825 51.9365 41.5062 52.2158 42.0176C52.4999 42.5242 52.6443 43.0806 52.6491 43.6866C52.6443 44.4726 52.4005 45.1757 51.9175 45.796C51.4346 46.4163 50.767 46.9063 49.9147 47.2662C49.0672 47.6213 48.0965 47.7988 47.0028 47.7988ZM47.0028 45.5403C47.4905 45.5403 47.9166 45.4527 48.2812 45.2775C48.6458 45.0976 48.9299 44.8514 49.1335 44.5389C49.3418 44.2217 49.446 43.8571 49.446 43.4451C49.446 43.0237 49.3394 42.6521 49.1264 42.3301C48.9133 42.0034 48.6245 41.7477 48.2599 41.563C47.8953 41.3736 47.4763 41.279 47.0028 41.279C46.534 41.279 46.115 41.3736 45.7457 41.563C45.3764 41.7477 45.0852 42.0034 44.8721 42.3301C44.6638 42.6521 44.5596 43.0237 44.5596 43.4451C44.5596 43.8571 44.6614 44.2217 44.865 44.5389C45.0686 44.8514 45.355 45.0976 45.7244 45.2775C46.0937 45.4527 46.5198 45.5403 47.0028 45.5403ZM47.0028 39.0417C47.41 39.0417 47.7722 38.9589 48.0894 38.7932C48.4067 38.6274 48.6552 38.3978 48.8352 38.1042C49.0151 37.8107 49.105 37.4721 49.105 37.0886C49.105 36.7098 49.0151 36.3784 48.8352 36.0943C48.6552 35.8055 48.409 35.5806 48.0965 35.4196C47.784 35.2539 47.4194 35.171 47.0028 35.171C46.5908 35.171 46.2263 35.2539 45.909 35.4196C45.5918 35.5806 45.3432 35.8055 45.1633 36.0943C44.9881 36.3784 44.9005 36.7098 44.9005 37.0886C44.9005 37.4721 44.9905 37.8107 45.1704 38.1042C45.3503 38.3978 45.5989 38.6274 45.9161 38.7932C46.2334 38.9589 46.5956 39.0417 47.0028 39.0417Z" fill="black"/>
</svg>
