<svg width="80" height="80" viewBox="0 0 80 80" fill="none" xmlns="http://www.w3.org/2000/svg">
<circle cx="40" cy="40" r="40" fill="#FF0000"/>
<circle cx="40" cy="40" r="24" fill="white" fill-opacity="0.7"/>
<path d="M27.979 47.6V45.3841L33.1565 40.59C33.5969 40.1639 33.9662 39.7804 34.2645 39.4395C34.5675 39.0986 34.7971 38.7647 34.9534 38.438C35.1096 38.1066 35.1878 37.7491 35.1878 37.3656C35.1878 36.9395 35.0907 36.5725 34.8966 36.2647C34.7025 35.9522 34.4373 35.7131 34.1011 35.5474C33.765 35.377 33.3838 35.2917 32.9577 35.2917C32.5126 35.2917 32.1243 35.3817 31.7929 35.5616C31.4614 35.7415 31.2058 35.9996 31.0258 36.3358C30.8459 36.6719 30.756 37.072 30.756 37.5361H27.8369C27.8369 36.5844 28.0524 35.7581 28.4832 35.0574C28.9141 34.3566 29.5178 33.8145 30.2943 33.4309C31.0708 33.0474 31.9657 32.8557 32.979 32.8557C34.0206 32.8557 34.9274 33.0403 35.6991 33.4096C36.4757 33.7742 37.0793 34.2808 37.5102 34.9295C37.9411 35.5782 38.1565 36.3216 38.1565 37.1596C38.1565 37.7089 38.0476 38.251 37.8298 38.7861C37.6167 39.3211 37.2356 39.9153 36.6864 40.5687C36.1371 41.2174 35.363 41.9963 34.3639 42.9054L32.2403 44.9863V45.0858H38.3483V47.6H27.979ZM40.5766 47.6V45.3841L45.7542 40.59C46.1945 40.1639 46.5638 39.7804 46.8621 39.4395C47.1652 39.0986 47.3948 38.7647 47.5511 38.438C47.7073 38.1066 47.7854 37.7491 47.7854 37.3656C47.7854 36.9395 47.6884 36.5725 47.4942 36.2647C47.3001 35.9522 47.035 35.7131 46.6988 35.5474C46.3626 35.377 45.9815 35.2917 45.5553 35.2917C45.1102 35.2917 44.722 35.3817 44.3905 35.5616C44.0591 35.7415 43.8034 35.9996 43.6235 36.3358C43.4436 36.6719 43.3536 37.072 43.3536 37.5361H40.4346C40.4346 36.5844 40.65 35.7581 41.0809 35.0574C41.5118 34.3566 42.1154 33.8145 42.892 33.4309C43.6685 33.0474 44.5634 32.8557 45.5766 32.8557C46.6183 32.8557 47.525 33.0403 48.2968 33.4096C49.0733 33.7742 49.677 34.2808 50.1079 34.9295C50.5387 35.5782 50.7542 36.3216 50.7542 37.1596C50.7542 37.7089 50.6453 38.251 50.4275 38.7861C50.2144 39.3211 49.8333 39.9153 49.284 40.5687C48.7348 41.2174 47.9606 41.9963 46.9616 42.9054L44.838 44.9863V45.0858H50.9459V47.6H40.5766Z" fill="black"/>
</svg>
