<svg width="80" height="80" viewBox="0 0 80 80" fill="none" xmlns="http://www.w3.org/2000/svg">
<circle cx="40" cy="40" r="40" fill="#FFA500"/>
<circle cx="40" cy="40" r="24" fill="white" fill-opacity="0.7"/>
<path d="M33.3554 47.7988C32.2948 47.7988 31.3502 47.6165 30.5216 47.252C29.6977 46.8826 29.0467 46.376 28.5685 45.7321C28.095 45.0834 27.8511 44.3353 27.8369 43.4878H30.9335C30.9524 43.8429 31.0685 44.1554 31.2815 44.4253C31.4993 44.6904 31.7882 44.8964 32.148 45.0432C32.5078 45.1899 32.9127 45.2633 33.3625 45.2633C33.8312 45.2633 34.2455 45.1805 34.6054 45.0147C34.9652 44.849 35.247 44.6194 35.4506 44.3258C35.6542 44.0323 35.756 43.6937 35.756 43.3102C35.756 42.9219 35.6471 42.5787 35.4292 42.2804C35.2162 41.9773 34.9084 41.7406 34.506 41.5701C34.1082 41.3997 33.6347 41.3145 33.0855 41.3145H31.729V39.0559H33.0855C33.5495 39.0559 33.9591 38.9754 34.3142 38.8145C34.674 38.6535 34.9534 38.4309 35.1523 38.1469C35.3511 37.858 35.4506 37.5219 35.4506 37.1383C35.4506 36.7737 35.363 36.4541 35.1878 36.1795C35.0173 35.9002 34.7758 35.6824 34.4633 35.5261C34.1556 35.3699 33.7957 35.2917 33.3838 35.2917C32.9671 35.2917 32.586 35.3675 32.2403 35.519C31.8947 35.6658 31.6177 35.8765 31.4094 36.1511C31.201 36.4257 31.0898 36.7477 31.0756 37.117H28.1281C28.1423 36.279 28.3814 35.5403 28.8454 34.9011C29.3095 34.2619 29.9345 33.7624 30.7204 33.4025C31.5112 33.0379 32.4037 32.8557 33.398 32.8557C34.4018 32.8557 35.2801 33.0379 36.0329 33.4025C36.7858 33.7671 37.3705 34.2595 37.7872 34.8798C38.2086 35.4953 38.4169 36.1866 38.4122 36.9537C38.4169 37.7681 38.1636 38.4475 37.6523 38.992C37.1456 39.5365 36.4851 39.8822 35.6707 40.029V40.1426C36.7408 40.2799 37.5552 40.6516 38.1139 41.2576C38.6774 41.859 38.9567 42.6118 38.952 43.5162C38.9567 44.3448 38.7176 45.081 38.2346 45.725C37.7564 46.3689 37.0959 46.8755 36.2531 47.2449C35.4103 47.6142 34.4444 47.7988 33.3554 47.7988ZM41.1626 47.6V45.3841L46.3401 40.59C46.7805 40.1639 47.1498 39.7804 47.4481 39.4395C47.7511 39.0986 47.9807 38.7647 48.137 38.438C48.2932 38.1066 48.3714 37.7491 48.3714 37.3656C48.3714 36.9395 48.2743 36.5725 48.0802 36.2647C47.886 35.9522 47.6209 35.7131 47.2847 35.5474C46.9485 35.377 46.5674 35.2917 46.1413 35.2917C45.6962 35.2917 45.3079 35.3817 44.9765 35.5616C44.645 35.7415 44.3894 35.9996 44.2094 36.3358C44.0295 36.6719 43.9395 37.072 43.9395 37.5361H41.0205C41.0205 36.5844 41.2359 35.7581 41.6668 35.0574C42.0977 34.3566 42.7014 33.8145 43.4779 33.4309C44.2544 33.0474 45.1493 32.8557 46.1626 32.8557C47.2042 32.8557 48.1109 33.0403 48.8827 33.4096C49.6592 33.7742 50.2629 34.2808 50.6938 34.9295C51.1247 35.5782 51.3401 36.3216 51.3401 37.1596C51.3401 37.7089 51.2312 38.251 51.0134 38.7861C50.8003 39.3211 50.4192 39.9153 49.8699 40.5687C49.3207 41.2174 48.5466 41.9963 47.5475 42.9054L45.4239 44.9863V45.0858H51.5319V47.6H41.1626Z" fill="black"/>
</svg>
