<svg width="80" height="80" viewBox="0 0 80 80" fill="none" xmlns="http://www.w3.org/2000/svg">
<circle cx="40" cy="40" r="40" fill="#FFA500"/>
<circle cx="40" cy="40" r="24" fill="white" fill-opacity="0.7"/>
<path d="M40.4915 47.1989C39.4877 47.1989 38.5928 47.0142 37.8068 46.6449C37.0256 46.2756 36.4053 45.7666 35.946 45.1179C35.4867 44.4692 35.2476 43.7259 35.2287 42.8878H38.2116C38.2448 43.4512 38.4815 43.9081 38.9219 44.2585C39.3622 44.6089 39.8854 44.7841 40.4915 44.7841C40.9744 44.7841 41.4006 44.6776 41.7699 44.4645C42.1439 44.2467 42.4351 43.946 42.6435 43.5625C42.8565 43.1742 42.9631 42.7292 42.9631 42.2273C42.9631 41.7159 42.8542 41.2661 42.6364 40.8778C42.4233 40.4896 42.1274 40.1866 41.7486 39.9688C41.3698 39.7509 40.9366 39.6397 40.4489 39.6349C40.0227 39.6349 39.6084 39.7225 39.206 39.8977C38.8082 40.0729 38.4981 40.312 38.2756 40.6151L35.5412 40.125L36.2301 32.4545H45.1222V34.9688H38.7656L38.3892 38.6122H38.4744C38.7301 38.2524 39.116 37.9541 39.6321 37.7173C40.1482 37.4806 40.7259 37.3622 41.3651 37.3622C42.241 37.3622 43.0223 37.5682 43.7088 37.9801C44.3954 38.392 44.9375 38.9579 45.3352 39.6776C45.733 40.3925 45.9295 41.2164 45.9247 42.1491C45.9295 43.1293 45.7022 44.0005 45.2429 44.7628C44.7884 45.5204 44.1515 46.117 43.3324 46.5526C42.518 46.9834 41.571 47.1989 40.4915 47.1989Z" fill="black"/>
</svg>
