<svg width="80" height="80" viewBox="0 0 80 80" fill="none" xmlns="http://www.w3.org/2000/svg">
<circle cx="40" cy="40" r="40" fill="#FFA500"/>
<circle cx="40" cy="40" r="24" fill="white" fill-opacity="0.7"/>
<path d="M27.979 47.6V45.3841L33.1566 40.59C33.5969 40.1639 33.9662 39.7804 34.2645 39.4395C34.5676 39.0986 34.7972 38.7647 34.9535 38.438C35.1097 38.1066 35.1878 37.7491 35.1878 37.3656C35.1878 36.9395 35.0908 36.5725 34.8966 36.2647C34.7025 35.9522 34.4374 35.7131 34.1012 35.5474C33.765 35.377 33.3839 35.2917 32.9577 35.2917C32.5126 35.2917 32.1244 35.3817 31.7929 35.5616C31.4615 35.7415 31.2058 35.9996 31.0259 36.3358C30.846 36.6719 30.756 37.072 30.756 37.5361H27.837C27.837 36.5844 28.0524 35.7581 28.4833 35.0574C28.9142 34.3566 29.5179 33.8145 30.2944 33.4309C31.0709 33.0474 31.9658 32.8557 32.979 32.8557C34.0207 32.8557 34.9274 33.0403 35.6992 33.4096C36.4757 33.7742 37.0794 34.2808 37.5103 34.9295C37.9411 35.5782 38.1566 36.3216 38.1566 37.1596C38.1566 37.7089 38.0477 38.251 37.8299 38.7861C37.6168 39.3211 37.2357 39.9153 36.6864 40.5687C36.1372 41.2174 35.363 41.9963 34.364 42.9054L32.2404 44.9863V45.0858H38.3483V47.6H27.979ZM46.1591 47.7988C45.411 47.7941 44.6889 47.6686 43.9929 47.4224C43.3016 47.1762 42.6813 46.7761 42.1321 46.2221C41.5828 45.6682 41.1472 44.9343 40.8253 44.0204C40.508 43.1066 40.3494 41.9844 40.3494 40.654C40.3541 39.4324 40.4938 38.341 40.7684 37.3798C41.0478 36.4139 41.4455 35.5948 41.9616 34.9224C42.4825 34.2501 43.1051 33.7387 43.8295 33.3883C44.554 33.0332 45.366 32.8557 46.2656 32.8557C47.2362 32.8557 48.0933 33.0451 48.8366 33.4238C49.58 33.7979 50.1766 34.3069 50.6264 34.9508C51.0809 35.5948 51.3556 36.3168 51.4503 37.117H48.4176C48.2992 36.6104 48.0506 36.2127 47.6719 35.9238C47.2931 35.635 46.8243 35.4906 46.2656 35.4906C45.3186 35.4906 44.5989 35.9025 44.1065 36.7264C43.6188 37.5503 43.3702 38.6701 43.3608 40.0858H43.4602C43.678 39.6549 43.9716 39.2879 44.3409 38.9849C44.7149 38.6772 45.1387 38.4428 45.6122 38.2818C46.0904 38.1161 46.5947 38.0332 47.125 38.0332C47.9867 38.0332 48.7538 38.2368 49.4261 38.644C50.0985 39.0465 50.6288 39.6004 51.017 40.3059C51.4053 41.0114 51.5994 41.8187 51.5994 42.7278C51.5994 43.7127 51.3698 44.5886 50.9105 45.3557C50.4559 46.1227 49.8191 46.724 49 47.1596C48.1856 47.5905 47.2386 47.8036 46.1591 47.7988ZM46.1449 45.3841C46.6183 45.3841 47.0421 45.2704 47.4162 45.0432C47.7902 44.8159 48.0838 44.5081 48.2969 44.1199C48.5099 43.7316 48.6165 43.296 48.6165 42.813C48.6165 42.3301 48.5099 41.8969 48.2969 41.5133C48.0885 41.1298 47.7997 40.8244 47.4304 40.5971C47.0611 40.3699 46.6397 40.2562 46.1662 40.2562C45.8111 40.2562 45.482 40.3225 45.179 40.4551C44.8807 40.5877 44.6179 40.7723 44.3906 41.0091C44.1681 41.2458 43.9929 41.5204 43.865 41.8329C43.7372 42.1407 43.6733 42.4698 43.6733 42.8201C43.6733 43.2889 43.7798 43.7174 43.9929 44.1057C44.2107 44.4939 44.5042 44.804 44.8736 45.0361C45.2476 45.2681 45.6714 45.3841 46.1449 45.3841Z" fill="black"/>
</svg>
