<svg width="80" height="80" viewBox="0 0 80 80" fill="none" xmlns="http://www.w3.org/2000/svg">
<circle cx="40" cy="40" r="40" fill="#FF0000"/>
<circle cx="40" cy="40" r="24" fill="white" fill-opacity="0.7"/>
<path d="M35.9071 33.0545V47.6H32.8318V35.9736H32.7466L29.4156 38.0616V35.3344L33.0165 33.0545H35.9071ZM44.9465 47.7988C44.1984 47.7941 43.4764 47.6686 42.7804 47.4224C42.0891 47.1762 41.4688 46.7761 40.9196 46.2221C40.3703 45.6682 39.9347 44.9343 39.6127 44.0204C39.2955 43.1066 39.1369 41.9844 39.1369 40.654C39.1416 39.4324 39.2813 38.341 39.5559 37.3798C39.8353 36.4139 40.233 35.5948 40.7491 34.9224C41.2699 34.2501 41.8926 33.7387 42.617 33.3883C43.3414 33.0332 44.1535 32.8557 45.0531 32.8557C46.0237 32.8557 46.8807 33.0451 47.6241 33.4238C48.3675 33.7979 48.9641 34.3069 49.4139 34.9508C49.8684 35.5948 50.143 36.3168 50.2377 37.117H47.2051C47.0867 36.6104 46.8381 36.2127 46.4593 35.9238C46.0805 35.635 45.6118 35.4906 45.0531 35.4906C44.1061 35.4906 43.3864 35.9025 42.894 36.7264C42.4063 37.5503 42.1577 38.6701 42.1482 40.0858H42.2477C42.4655 39.6549 42.759 39.2879 43.1284 38.9849C43.5024 38.6772 43.9262 38.4428 44.3997 38.2818C44.8779 38.1161 45.3822 38.0332 45.9125 38.0332C46.7742 38.0332 47.5412 38.2368 48.2136 38.644C48.8859 39.0465 49.4162 39.6004 49.8045 40.3059C50.1928 41.0114 50.3869 41.8187 50.3869 42.7278C50.3869 43.7127 50.1572 44.5886 49.698 45.3557C49.2434 46.1227 48.6066 46.724 47.7875 47.1596C46.9731 47.5905 46.0261 47.8036 44.9465 47.7988ZM44.9323 45.3841C45.4058 45.3841 45.8296 45.2704 46.2036 45.0432C46.5777 44.8159 46.8713 44.5081 47.0843 44.1199C47.2974 43.7316 47.4039 43.296 47.4039 42.813C47.4039 42.3301 47.2974 41.8969 47.0843 41.5133C46.876 41.1298 46.5872 40.8244 46.2179 40.5971C45.8485 40.3699 45.4271 40.2562 44.9536 40.2562C44.5985 40.2562 44.2695 40.3225 43.9664 40.4551C43.6681 40.5877 43.4054 40.7723 43.1781 41.0091C42.9555 41.2458 42.7804 41.5204 42.6525 41.8329C42.5247 42.1407 42.4607 42.4698 42.4607 42.8201C42.4607 43.2889 42.5673 43.7174 42.7804 44.1057C42.9982 44.4939 43.2917 44.804 43.661 45.0361C44.0351 45.2681 44.4589 45.3841 44.9323 45.3841Z" fill="black"/>
</svg>
