<svg width="80" height="80" viewBox="0 0 80 80" fill="none" xmlns="http://www.w3.org/2000/svg">
<circle cx="40" cy="40" r="40" fill="#FF0000"/>
<circle cx="40" cy="40" r="24" fill="white" fill-opacity="0.7"/>
<path d="M40.4418 33.2557C41.1899 33.2557 41.9096 33.3812 42.6009 33.6321C43.2969 33.883 43.9171 34.2831 44.4616 34.8324C45.0109 35.3816 45.4441 36.1108 45.7614 37.0199C46.0833 37.9242 46.2467 39.0346 46.2514 40.3509C46.2514 41.5866 46.1117 42.6899 45.8324 43.6605C45.5578 44.6264 45.1624 45.4479 44.6463 46.125C44.1302 46.8021 43.5076 47.3182 42.7784 47.6733C42.0492 48.0237 41.2348 48.1989 40.3352 48.1989C39.3646 48.1989 38.5076 48.0118 37.7642 47.6378C37.0208 47.259 36.4219 46.7453 35.9673 46.0966C35.5175 45.4432 35.2453 44.7093 35.1506 43.8949H38.1832C38.3016 44.4252 38.5502 44.8371 38.929 45.1307C39.3078 45.4195 39.7765 45.5639 40.3352 45.5639C41.2822 45.5639 42.0019 45.152 42.4943 44.3281C42.9867 43.4995 43.2353 42.3655 43.2401 40.9261H43.1406C42.9228 41.3523 42.6293 41.7192 42.2599 42.027C41.8906 42.33 41.4669 42.5644 40.9886 42.7301C40.5152 42.8958 40.0109 42.9787 39.4759 42.9787C38.6188 42.9787 37.8542 42.7775 37.1818 42.375C36.5095 41.9725 35.9792 41.4186 35.5909 40.7131C35.2027 40.0076 35.0085 39.2027 35.0085 38.2983C35.0038 37.3229 35.2287 36.4541 35.6832 35.6918C36.1378 34.9295 36.7723 34.3329 37.5866 33.902C38.4058 33.4664 39.3575 33.2509 40.4418 33.2557ZM40.4631 35.6705C39.9848 35.6705 39.5587 35.7841 39.1847 36.0114C38.8153 36.2386 38.5218 36.544 38.304 36.9276C38.0909 37.3111 37.9867 37.7396 37.9915 38.2131C37.9915 38.6913 38.0956 39.1222 38.304 39.5057C38.517 39.8845 38.8059 40.1875 39.1705 40.4148C39.5398 40.6373 39.9612 40.7486 40.4347 40.7486C40.7898 40.7486 41.1188 40.6823 41.4219 40.5497C41.7249 40.4171 41.9877 40.2348 42.2102 40.0028C42.4375 39.7661 42.6151 39.4938 42.7429 39.1861C42.8707 38.8783 42.9347 38.5516 42.9347 38.206C42.9299 37.7467 42.821 37.3253 42.608 36.9418C42.3949 36.5582 42.1013 36.2505 41.7273 36.0185C41.3532 35.7865 40.9318 35.6705 40.4631 35.6705Z" fill="black"/>
</svg>
