<svg width="80" height="80" viewBox="0 0 80 80" fill="none" xmlns="http://www.w3.org/2000/svg">
<circle cx="40" cy="40" r="40" fill="#57B04A"/>
<circle cx="40" cy="40" r="24" fill="white" fill-opacity="0.7"/>
<path d="M40.5554 46.1989C39.4948 46.1989 38.5502 46.0166 37.7216 45.652C36.8977 45.2827 36.2467 44.776 35.7685 44.1321C35.295 43.4834 35.0511 42.7353 35.0369 41.8878H38.1335C38.1525 42.2429 38.2685 42.5554 38.4815 42.8253C38.6993 43.0904 38.9882 43.2964 39.348 43.4432C39.7079 43.59 40.1127 43.6634 40.5625 43.6634C41.0312 43.6634 41.4455 43.5805 41.8054 43.4148C42.1652 43.2491 42.447 43.0194 42.6506 42.7259C42.8542 42.4323 42.956 42.0937 42.956 41.7102C42.956 41.322 42.8471 40.9787 42.6293 40.6804C42.4162 40.3774 42.1084 40.1406 41.706 39.9702C41.3082 39.7997 40.8348 39.7145 40.2855 39.7145H38.929V37.456H40.2855C40.7495 37.456 41.1591 37.3755 41.5142 37.2145C41.8741 37.0535 42.1534 36.831 42.3523 36.5469C42.5511 36.258 42.6506 35.9219 42.6506 35.5384C42.6506 35.1738 42.563 34.8542 42.3878 34.5795C42.2173 34.3002 41.9759 34.0824 41.6634 33.9261C41.3556 33.7699 40.9957 33.6918 40.5838 33.6918C40.1671 33.6918 39.786 33.7675 39.4403 33.919C39.0947 34.0658 38.8177 34.2765 38.6094 34.5511C38.401 34.8258 38.2898 35.1477 38.2756 35.517H35.3281C35.3423 34.679 35.5814 33.9403 36.0455 33.3011C36.5095 32.6619 37.1345 32.1624 37.9205 31.8026C38.7112 31.438 39.6037 31.2557 40.598 31.2557C41.6018 31.2557 42.4801 31.438 43.233 31.8026C43.9858 32.1671 44.5705 32.6596 44.9872 33.2798C45.4086 33.8954 45.617 34.5866 45.6122 35.3537C45.617 36.1681 45.3636 36.8475 44.8523 37.392C44.3456 37.9366 43.6851 38.2822 42.8707 38.429V38.5426C43.9408 38.6799 44.7552 39.0516 45.3139 39.6577C45.8774 40.259 46.1567 41.0118 46.152 41.9162C46.1567 42.7448 45.9176 43.4811 45.4347 44.125C44.9564 44.7689 44.2959 45.2756 43.4531 45.6449C42.6103 46.0142 41.6444 46.1989 40.5554 46.1989Z" fill="black"/>
</svg>
