<svg width="80" height="80" viewBox="0 0 80 80" fill="none" xmlns="http://www.w3.org/2000/svg">
<circle cx="40" cy="40" r="40" fill="#FF0000"/>
<circle cx="40" cy="40" r="24" fill="white" fill-opacity="0.7"/>
<path d="M26.9588 44.0432V41.6213L33.0312 32.0545H35.1193V35.4068H33.8835L30.0554 41.465V41.5787H38.6847V44.0432H26.9588ZM33.9403 46.6V43.3045L33.9972 42.2321V32.0545H36.8807V46.6H33.9403ZM46.1101 46.7988C45.0495 46.7988 44.1049 46.6165 43.2763 46.252C42.4524 45.8826 41.8014 45.376 41.3232 44.7321C40.8497 44.0834 40.6058 43.3353 40.5916 42.4878H43.6882C43.7071 42.8429 43.8232 43.1554 44.0362 43.4253C44.254 43.6904 44.5429 43.8964 44.9027 44.0432C45.2625 44.1899 45.6674 44.2633 46.1172 44.2633C46.5859 44.2633 47.0002 44.1805 47.3601 44.0147C47.7199 43.849 48.0017 43.6194 48.2053 43.3258C48.4089 43.0323 48.5107 42.6937 48.5107 42.3102C48.5107 41.9219 48.4018 41.5787 48.1839 41.2804C47.9709 40.9773 47.6631 40.7406 47.2607 40.5701C46.8629 40.3997 46.3894 40.3145 45.8402 40.3145H44.4837V38.0559H45.8402C46.3042 38.0559 46.7138 37.9754 47.0689 37.8145C47.4287 37.6535 47.7081 37.4309 47.907 37.1469C48.1058 36.858 48.2053 36.5219 48.2053 36.1383C48.2053 35.7737 48.1177 35.4541 47.9425 35.1795C47.772 34.9002 47.5305 34.6824 47.218 34.5261C46.9103 34.3699 46.5504 34.2917 46.1385 34.2917C45.7218 34.2917 45.3407 34.3675 44.995 34.519C44.6494 34.6658 44.3724 34.8765 44.1641 35.1511C43.9557 35.4257 43.8445 35.7477 43.8303 36.117H40.8828C40.897 35.279 41.1361 34.5403 41.6001 33.9011C42.0642 33.2619 42.6892 32.7624 43.4751 32.4025C44.2659 32.0379 45.1584 31.8557 46.1527 31.8557C47.1565 31.8557 48.0348 32.0379 48.7876 32.4025C49.5405 32.7671 50.1252 33.2595 50.5419 33.8798C50.9633 34.4953 51.1716 35.1866 51.1669 35.9537C51.1716 36.7681 50.9183 37.4475 50.407 37.992C49.9003 38.5365 49.2398 38.8822 48.4254 39.029V39.1426C49.4955 39.2799 50.3099 39.6516 50.8686 40.2576C51.4321 40.859 51.7114 41.6118 51.7067 42.5162C51.7114 43.3448 51.4723 44.081 50.9893 44.725C50.5111 45.3689 49.8506 45.8755 49.0078 46.2449C48.165 46.6142 47.1991 46.7988 46.1101 46.7988Z" fill="black"/>
</svg>
